<svg width="708" height="135" viewBox="0 0 708 135" fill="none" xmlns="http://www.w3.org/2000/svg">
<path d="M199.643 119V11.9984H239.692C244.991 11.9984 249.628 13.2723 253.602 15.8199C257.679 18.3676 260.838 21.8324 263.08 26.2144C265.423 30.4944 266.595 35.284 266.595 40.5831C266.595 44.7613 265.882 48.5318 264.455 51.8947C263.029 55.2576 260.787 58.8244 257.73 62.5949C262.621 65.8559 266.188 69.6774 268.43 74.0593C270.774 78.3394 271.945 82.9761 271.945 87.9695C271.945 91.7401 271.232 95.5106 269.805 99.2811C268.379 102.95 266.392 106.262 263.844 109.217C261.296 112.172 258.341 114.567 254.978 116.401C251.717 118.134 248.252 119 244.584 119H199.643ZM211.872 59.6906H239.234C241.985 59.6906 244.482 58.7734 246.724 56.9391C248.966 55.0029 250.749 52.6081 252.074 49.7547C253.5 46.7994 254.214 43.7422 254.214 40.5831C254.214 36.0993 252.889 32.2778 250.239 29.1187C247.692 25.8577 244.176 24.2272 239.692 24.2272H211.872V59.6906ZM211.872 106.771H244.584C247.437 106.771 249.985 105.803 252.227 103.867C254.469 101.931 256.252 99.5359 257.577 96.6825C258.901 93.8292 259.564 90.9248 259.564 87.9695C259.564 83.4857 258.239 79.6132 255.59 76.3522C252.94 72.9893 249.424 71.3079 245.042 71.3079H211.872V106.771ZM309.316 119.764C302.183 119.56 296.221 117.573 291.431 113.803C286.642 109.93 284.247 104.325 284.247 96.9882C284.247 89.3453 286.489 83.3838 290.973 79.1037C295.457 74.7217 301.571 71.9193 309.316 70.6964C317.061 69.4736 325.723 69.7283 335.302 71.4607V65.9578C335.302 62.3911 334.181 59.5887 331.939 57.5505C329.697 55.4105 326.793 53.9838 323.226 53.2705C319.761 52.5571 316.093 52.5062 312.22 53.1176C308.45 53.6271 304.883 54.7991 301.52 56.6334C298.157 58.3658 295.559 60.6587 293.724 63.512L286.234 55.5634C289.393 51.6909 293.215 48.6847 297.699 46.5447C302.284 44.4046 307.023 43.0289 311.915 42.4174C316.806 41.806 321.545 41.9589 326.131 42.876C330.716 43.7932 334.742 45.4746 338.206 47.9204C341.569 49.9585 343.862 52.6081 345.085 55.8691C346.41 59.0282 347.174 62.6968 347.378 66.8749C347.582 71.0531 347.684 75.537 347.684 80.3266V119H335.455V111.816C331.684 114.567 327.506 116.605 322.92 117.93C318.335 119.255 313.8 119.866 309.316 119.764ZM335.149 100.963V80.938C323.022 79.4094 313.392 79.817 306.259 82.1609C299.125 84.5047 295.559 89.3962 295.559 96.8354C295.559 100.096 296.476 102.644 298.31 104.478C300.246 106.313 302.692 107.536 305.647 108.147C308.705 108.758 312.017 108.86 315.583 108.453C319.15 108.045 322.666 107.179 326.131 105.854C329.595 104.529 332.602 102.899 335.149 100.963ZM429.904 119H417.828V73.6008C417.828 68.7093 416.758 64.7859 414.618 61.8306C412.58 58.8753 409.931 56.7862 406.67 55.5634C403.51 54.2386 400.198 53.5762 396.734 53.5762C393.371 53.5762 390.008 54.2895 386.645 55.7162C383.384 57.1429 380.632 59.3339 378.391 62.2892C376.149 65.2445 375.028 69.015 375.028 73.6008V119H362.952V42.5703H375.028V50.8247C377.371 47.6656 380.581 45.3727 384.658 43.946C388.734 42.4174 392.963 41.6531 397.345 41.6531C403.256 41.6531 408.657 42.876 413.548 45.3218C418.542 47.7675 422.516 51.3852 425.471 56.1748C428.426 60.8625 429.904 66.6711 429.904 73.6008V119ZM443.71 119V11.9984H455.939V68.0978L481.314 43.6403H498.128L466.639 74.8236L499.657 119H485.594L457.315 83.078L455.939 85.5238V119H443.71ZM616.603 65.4992C616.603 73.2441 615.227 80.4794 612.476 87.2052C609.826 93.8292 606.106 99.6378 601.317 104.631C596.527 109.625 590.973 113.548 584.655 116.401C578.337 119.153 571.56 120.529 564.325 120.529C556.988 120.529 550.16 119.102 543.842 116.249C537.523 113.395 531.97 109.472 527.18 104.478C522.39 99.383 518.62 93.5234 515.868 86.8995C513.219 80.2756 511.894 73.1422 511.894 65.4992C511.894 57.9582 513.27 50.8757 516.021 44.2518C518.773 37.526 522.594 31.6663 527.486 26.6729C532.377 21.5776 537.982 17.6033 544.3 14.7499C550.618 11.8965 557.293 10.4698 564.325 10.4698C571.56 10.4698 578.337 11.9475 584.655 14.9028C590.973 17.7561 596.527 21.7305 601.317 26.8258C606.106 31.9211 609.826 37.7807 612.476 44.4046C615.227 51.0285 616.603 58.0601 616.603 65.4992ZM604.221 65.4992C604.221 59.5887 603.151 54.0348 601.011 48.8375C598.973 43.5384 596.12 38.9017 592.451 34.9273C588.884 30.8511 584.655 27.692 579.764 25.4501C574.974 23.1062 569.828 21.9343 564.325 21.9343C558.72 21.9343 553.472 23.1062 548.58 25.4501C543.791 27.692 539.562 30.8511 535.893 34.9273C532.326 38.9017 529.473 43.5384 527.333 48.8375C525.295 54.0348 524.276 59.5887 524.276 65.4992C524.276 71.4098 525.295 77.0146 527.333 82.3137C529.473 87.6129 532.326 92.3006 535.893 96.3768C539.562 100.351 543.791 103.51 548.58 105.854C553.472 108.096 558.72 109.217 564.325 109.217C569.93 109.217 575.127 108.096 579.916 105.854C584.706 103.51 588.935 100.351 592.604 96.3768C596.272 92.3006 599.126 87.6638 601.164 82.4666C603.202 77.1675 604.221 71.5117 604.221 65.4992ZM664.394 120.376C657.668 120.376 651.095 119.051 644.675 116.401C638.357 113.752 633.058 110.491 628.778 106.618L638.102 98.0583C641.873 101.115 646.102 103.561 650.79 105.396C655.477 107.128 659.91 107.994 664.088 107.994C668.266 107.994 672.088 107.179 675.553 105.548C679.119 103.918 681.973 101.676 684.113 98.8226C686.253 95.8673 687.374 92.4534 687.476 88.581C687.578 83.6895 685.845 79.7661 682.279 76.8108C678.712 73.8555 673.209 71.4607 665.77 69.6264C658.534 67.7921 652.216 65.5502 646.815 62.9006C641.414 60.1491 637.287 56.6843 634.434 52.5062C631.58 48.328 630.408 43.1308 630.918 36.9145C631.631 28.6601 635.045 22.3419 641.159 17.96C647.376 13.4761 655.528 11.2341 665.617 11.2341C670.508 11.2341 675.655 11.8456 681.056 13.0685C686.559 14.1894 691.705 16.1256 696.494 18.8771L688.393 28.6601C684.826 27.1315 681.158 25.9086 677.387 24.9915C673.617 23.9724 669.795 23.4119 665.923 23.31C662.152 23.31 658.534 23.8196 655.07 24.8386C651.707 25.7558 648.955 27.3353 646.815 29.5773C644.675 31.7173 643.554 34.6216 643.452 38.2903C643.452 42.0608 644.471 45.118 646.509 47.4618C648.548 49.7037 651.299 51.5381 654.764 52.9647C658.229 54.3914 662.101 55.7162 666.381 56.9391C673.617 58.8753 679.68 61.0153 684.571 63.3592C689.565 65.703 693.335 68.8112 695.883 72.6836C698.431 76.556 699.705 81.8552 699.705 88.581C699.705 94.5935 698.074 99.9945 694.813 104.784C691.654 109.574 687.374 113.395 681.973 116.249C676.674 119 670.814 120.376 664.394 120.376Z" fill="white"/>
<path d="M0 118.015C9.18123 128.416 21.043 135 33.508 135C45.906 135 57.8349 128.416 67.0161 118.206C57.8349 107.901 45.973 102.271 33.508 102.271C21.043 102.271 9.11417 107.71 0 118.015Z" fill="#67E7F9"/>
<path d="M82.6056 118.015C91.7867 128.416 103.649 135 116.114 135C128.512 135 140.441 128.416 149.622 118.206C140.441 107.901 128.579 102.271 116.114 102.271C103.649 102.271 91.7198 107.71 82.6056 118.015Z" fill="#67E7F9"/>
<path d="M127.011 54.9267C113.165 54.0643 100.122 57.7964 91.3076 66.6105C82.5409 75.3771 78.7615 88.4677 79.4889 102.179C93.268 102.974 105.636 98.5676 114.451 89.7534C123.265 80.9393 127.854 68.6585 127.011 54.9267Z" fill="#67E7F9"/>
<path d="M22.6104 54.9267C36.4569 54.0643 49.5001 57.7964 58.3142 66.6105C67.0809 75.3771 70.8603 88.4677 70.1328 102.179C56.3537 102.974 43.9853 98.5676 35.1711 89.7534C26.3571 80.9393 21.768 68.6585 22.6104 54.9267Z" fill="#67E7F9"/>
<path d="M108.116 7.22684C107.765 7.28196 107.413 7.33683 107.058 7.39183C95.0981 9.14782 86.5402 18.806 82.9314 30.0249C82.6221 30.7079 83.2408 24.3666 86.4371 15.6842C86.9093 14.4331 87.4344 13.1288 88.0192 11.7809C85.901 6.08026 79.2907 0.566746 74.7982 0C69.6307 0.56103 61.837 7.45432 60.9899 13.9467C52.0103 6.25199 41.6751 4.88936 41.6751 4.88936C41.6751 4.88936 40.6586 13.8666 41.9293 24.6072C42.014 25.8095 42.1834 26.9317 42.4376 28.1341C44.979 43.9243 52.6032 61.8788 74.7982 63.562C96.9085 61.8788 104.617 43.764 107.159 28.1341C107.413 26.9317 107.498 25.7294 107.667 24.6072C108.544 17.0826 108.332 10.5511 108.116 7.22684Z" fill="#67E7F9"/>
</svg>
