<svg width="858" height="147" viewBox="0 0 858 147" fill="none" xmlns="http://www.w3.org/2000/svg">
<path d="M366.469 127.209L351.018 130.27L336.016 36.5985L311.386 117.73L292.875 119.895L264.96 41.1514L251.451 126.762L235.702 124.597L256.377 15.7744H271.827L301.906 101.832L328.702 16.67L346.242 16.2222L366.469 127.209ZM417.969 117.133C420.606 117.133 423.219 116.735 425.806 115.939C428.394 115.093 430.782 113.899 432.971 112.356C435.161 110.764 437.052 108.799 438.644 106.46C440.286 104.121 441.48 101.409 442.227 98.3244L456.632 101.235C455.239 105.763 453.273 109.868 450.735 113.551C448.198 117.233 445.237 120.392 441.853 123.03C438.47 125.667 434.738 127.707 430.658 129.15C426.627 130.593 422.398 131.315 417.969 131.315C411.401 131.315 405.579 130.319 400.504 128.329C395.428 126.339 391.149 123.527 387.666 119.895C384.183 116.262 381.521 111.884 379.68 106.759C377.888 101.633 376.993 95.9111 376.993 89.5917C376.993 83.3718 378.038 77.5749 380.127 72.201C382.267 66.7773 385.178 62.075 388.86 58.0943C392.542 54.1136 396.871 50.9788 401.847 48.6899C406.823 46.401 412.197 45.2565 417.969 45.2565C423.144 45.2565 428.02 46.2766 432.598 48.3167C437.176 50.3071 441.231 53.0936 444.764 56.6762C448.297 60.2091 451.208 64.3888 453.497 69.2154C455.786 74.0421 457.229 79.2667 457.826 84.8895L393.189 94.5178C393.537 98.0507 394.408 101.235 395.802 104.072C397.195 106.858 398.961 109.222 401.101 111.162C403.29 113.103 405.803 114.596 408.639 115.641C411.525 116.636 414.635 117.133 417.969 117.133ZM438.569 75.2611L438.121 73.843C436.231 68.9169 433.618 65.0606 430.284 62.2741C427 59.4876 422.895 58.0943 417.969 58.0943C415.879 58.0943 413.59 58.4675 411.102 59.2139C408.614 59.9105 406.201 61.1296 403.862 62.8712C401.524 64.6127 399.409 66.9514 397.518 69.8872C395.677 72.7732 394.383 76.3807 393.637 80.7097L438.569 75.2611ZM508.58 117.133C511.217 117.133 513.83 116.735 516.417 115.939C519.005 115.093 521.393 113.899 523.582 112.356C525.772 110.764 527.663 108.799 529.255 106.46C530.897 104.121 532.091 101.409 532.838 98.3244L547.243 101.235C545.85 105.763 543.884 109.868 541.346 113.551C538.809 117.233 535.848 120.392 532.464 123.03C529.081 125.667 525.349 127.707 521.269 129.15C517.238 130.593 513.009 131.315 508.58 131.315C502.012 131.315 496.19 130.319 491.115 128.329C486.039 126.339 481.76 123.527 478.277 119.895C474.794 116.262 472.132 111.884 470.291 106.759C468.499 101.633 467.604 95.9111 467.604 89.5917C467.604 83.3718 468.649 77.5749 470.738 72.201C472.878 66.7773 475.789 62.075 479.471 58.0943C483.153 54.1136 487.482 50.9788 492.458 48.6899C497.434 46.401 502.808 45.2565 508.58 45.2565C513.755 45.2565 518.631 46.2766 523.209 48.3167C527.787 50.3071 531.842 53.0936 535.375 56.6762C538.908 60.2091 541.819 64.3888 544.108 69.2154C546.397 74.0421 547.84 79.2667 548.437 84.8895L483.8 94.5178C484.148 98.0507 485.019 101.235 486.412 104.072C487.806 106.858 489.572 109.222 491.712 111.162C493.901 113.103 496.414 114.596 499.25 115.641C502.136 116.636 505.246 117.133 508.58 117.133ZM529.18 75.2611L528.732 73.843C526.842 68.9169 524.229 65.0606 520.895 62.2741C517.611 59.4876 513.506 58.0943 508.58 58.0943C506.49 58.0943 504.201 58.4675 501.713 59.2139C499.225 59.9105 496.812 61.1296 494.473 62.8712C492.135 64.6127 490.02 66.9514 488.129 69.8872C486.288 72.7732 484.994 76.3807 484.248 80.7097L529.18 75.2611ZM595.832 16.5208L595.31 49.8841L624.27 48.9138L623.15 62.8712L595.161 63.6176L594.563 128.702L578.815 129.075L580.084 64.0654L554.259 64.6625L554.557 50.929L580.382 50.1827L580.979 17.4911L595.832 16.5208ZM744.139 71.2307C744.139 76.5549 743.467 81.68 742.124 86.6062C740.78 91.4826 738.864 96.0604 736.376 100.34C733.938 104.619 731.002 108.525 727.569 112.058C724.136 115.591 720.304 118.626 716.075 121.164C711.895 123.652 707.392 125.592 702.565 126.986C697.788 128.379 692.812 129.075 687.638 129.075C682.413 129.075 677.387 128.379 672.561 126.986C667.784 125.592 663.305 123.652 659.126 121.164C654.946 118.626 651.139 115.591 647.706 112.058C644.273 108.525 641.337 104.619 638.899 100.34C636.46 96.0604 634.57 91.4826 633.226 86.6062C631.883 81.68 631.211 76.5549 631.211 71.2307C631.211 65.9065 631.883 60.7813 633.226 55.8552C634.57 50.929 636.46 46.3263 638.899 42.0471C641.337 37.7678 644.273 33.8866 647.706 30.4035C651.139 26.8706 654.946 23.8602 659.126 21.3722C663.305 18.8345 667.809 16.8939 672.635 15.5505C677.462 14.1572 682.463 13.4606 687.638 13.4606C692.812 13.4606 697.788 14.1572 702.565 15.5505C707.392 16.8939 711.895 18.8345 716.075 21.3722C720.304 23.8602 724.136 26.8706 727.569 30.4035C731.002 33.8866 733.938 37.7678 736.376 42.0471C738.864 46.3263 740.78 50.929 742.124 55.8552C743.467 60.7813 744.139 65.9065 744.139 71.2307ZM729.36 71.2307C729.36 67.2997 728.863 63.518 727.868 59.8856C726.872 56.2035 725.454 52.7701 723.613 49.5855C721.822 46.401 719.657 43.515 717.12 40.9275C714.582 38.2903 711.771 36.0511 708.686 34.21C705.6 32.3192 702.267 30.8762 698.684 29.881C695.151 28.8361 691.469 28.3136 687.638 28.3136C681.865 28.3136 676.467 29.4581 671.441 31.747C666.415 33.9861 662.012 37.0463 658.23 40.9275C654.448 44.8087 651.463 49.3616 649.273 54.5863C647.134 59.7612 646.064 65.3094 646.064 71.2307C646.064 77.152 647.134 82.725 649.273 87.9497C651.463 93.1744 654.448 97.7273 658.23 101.608C662.012 105.49 666.415 108.575 671.441 110.864C676.467 113.103 681.865 114.222 687.638 114.222C691.469 114.222 695.151 113.725 698.684 112.73C702.267 111.685 705.6 110.242 708.686 108.401C711.771 106.51 714.582 104.271 717.12 101.683C719.657 99.0459 721.822 96.135 723.613 92.9504C725.454 89.7659 726.872 86.3574 727.868 82.725C728.863 79.0428 729.36 75.2114 729.36 71.2307ZM843.408 106.385C842.91 109.868 841.915 112.978 840.422 115.715C838.979 118.402 837.163 120.741 834.974 122.731C832.784 124.722 830.321 126.388 827.584 127.732C824.897 129.125 822.061 130.245 819.076 131.091C816.14 131.937 813.154 132.534 810.119 132.882C807.084 133.28 804.173 133.479 801.386 133.479C797.555 133.479 793.773 133.056 790.041 132.21C786.309 131.414 782.627 130.27 778.995 128.777C775.412 127.334 771.854 125.592 768.322 123.552C764.838 121.512 761.38 119.273 757.947 116.835L768.844 103.997C772.725 107.43 776.557 110.142 780.338 112.132C784.17 114.073 787.603 115.541 790.638 116.536C794.171 117.73 797.555 118.527 800.789 118.925C804.372 119.124 807.706 118.85 810.791 118.104C813.876 117.357 816.563 116.287 818.852 114.894C821.19 113.451 823.056 111.759 824.45 109.819C825.843 107.828 826.664 105.738 826.913 103.549C827.062 101.708 826.739 100.041 825.942 98.5483C825.146 97.0058 823.977 95.6125 822.434 94.3686C820.892 93.0748 819.076 91.9553 816.986 91.0098C814.896 90.0147 812.657 89.1439 810.268 88.3975C807.93 87.6014 805.491 86.9296 802.954 86.3823C800.466 85.7852 798.053 85.2876 795.714 84.8895C792.878 84.3919 789.892 83.745 786.757 82.9489C783.622 82.103 780.537 81.0083 777.502 79.6648C774.467 78.3213 771.606 76.6544 768.919 74.664C766.232 72.6737 763.893 70.2853 761.903 67.4988C759.962 64.6625 758.469 61.3784 757.424 57.6465C756.429 53.9146 756.106 49.6353 756.454 44.8087C756.753 40.828 757.574 37.2453 758.917 34.0608C760.31 30.8264 762.077 27.9404 764.216 25.4027C766.406 22.865 768.894 20.7005 771.68 18.9092C774.517 17.0681 777.527 15.5505 780.712 14.3562C783.896 13.162 787.18 12.3161 790.564 11.8185C793.997 11.2712 797.406 11.0224 800.789 11.0722C805.467 11.3209 810.169 12.0424 814.896 13.2367C816.886 13.7343 818.976 14.3811 821.166 15.1773C823.405 15.9236 825.644 16.8442 827.883 17.9389C830.122 18.9838 832.336 20.2527 834.526 21.7454C836.715 23.1884 838.805 24.8554 840.795 26.7462L832.436 39.9572C830.844 38.1659 829.152 36.5985 827.361 35.255C825.569 33.9115 823.753 32.7422 821.912 31.747C820.121 30.7518 818.329 29.9059 816.538 29.2093C814.747 28.5126 813.055 27.9404 811.463 27.4926C807.631 26.4477 803.874 25.8505 800.192 25.7013C795.664 25.7013 791.634 26.3979 788.101 27.7911C784.568 29.1346 781.582 30.9011 779.144 33.0905C776.756 35.2301 774.915 37.6434 773.621 40.3304C772.377 42.9676 771.755 45.58 771.755 48.1674C771.755 50.7051 772.501 53.1682 773.994 55.5566C775.537 57.945 777.651 60.1096 780.338 62.0502C783.025 63.9908 786.185 65.6577 789.817 67.0509C793.45 68.3944 797.356 69.3398 801.536 69.8872C805.168 70.2853 808.776 70.9321 812.358 71.8278C815.991 72.7234 819.449 73.8679 822.733 75.2611C826.017 76.6544 829.027 78.3462 831.764 80.3366C834.551 82.2772 836.889 84.5412 838.78 87.1286C840.671 89.6664 842.039 92.5524 842.885 95.7867C843.781 98.9713 843.955 102.504 843.408 106.385Z" fill="black"/>
<path d="M87.8546 141.072H142.827C142.827 141.072 142.827 63.8249 142.827 43.6922C142.827 19.5615 123.265 0 99.1346 0C75.0039 0 55.5851 19.5615 55.5851 43.6922V108.802C55.5851 126.65 70.0064 141.072 87.8546 141.072Z" fill="#F43F5E"/>
<path d="M45.8925 97.0215L0 70.5357L45.8925 44.0499V97.0215Z" fill="#F43F5E"/>
<path d="M152.262 103.774V146.539H164.618C176.389 146.539 186 136.927 186 125.157C186 113.386 176.389 103.774 164.618 103.774H152.262Z" fill="#F43F5E"/>
</svg>
