<svg width="691" height="176" viewBox="0 0 691 176" fill="none" xmlns="http://www.w3.org/2000/svg">
<path d="M185.685 83.1332L193.568 84.2593L198.159 63.2098H223.713V152.519L209.074 156.59L208.467 163H255.157L256.37 156.07L240.345 153.125V63.2098H266.765L270.057 83.2198L278.286 84.5191L281.231 55.2404H184.992L185.685 83.1332ZM301.068 165.079C307.305 165.079 312.387 163.664 316.314 160.834C320.298 157.947 323.128 154.886 324.803 151.652H325.755V152.952C325.755 154.857 326.189 156.705 327.055 158.496C327.979 160.228 329.451 161.672 331.473 162.827C333.494 163.982 336.064 164.559 339.182 164.559C341.608 164.559 344.206 164.242 346.978 163.606C348.768 163.26 350.097 163.029 350.963 162.913L352.089 155.464L347.758 154.684C345.044 154.222 342.994 153.616 341.608 152.865C340.279 152.057 339.355 150.93 338.836 149.487C338.316 147.985 338.056 145.849 338.056 143.077V111.632C338.056 102.392 336.381 95.6647 333.032 91.449C329.74 87.1756 324.283 85.0389 316.66 85.0389C312.618 85.0389 308.258 85.8762 303.58 87.551C298.902 89.2257 294.975 91.449 291.799 94.221C288.623 96.9352 287.035 99.7937 287.035 102.797C287.035 106.55 288.19 108.976 290.5 110.073C292.81 111.17 295.668 111.719 299.075 111.719C299.595 105.886 300.028 101.873 300.375 99.6782C300.779 97.4838 301.588 95.8379 302.8 94.7407C304.013 93.6435 305.976 93.0949 308.691 93.0949C314.177 93.0949 318.104 95.2893 320.471 99.6782C322.839 104.009 324.023 109.524 324.023 116.223V120.988C315.014 121.623 307.507 123.298 301.501 126.012C295.553 128.668 291.164 131.96 288.334 135.887C285.504 139.814 284.09 144.001 284.09 148.447C284.09 151.854 284.84 154.829 286.342 157.369C287.901 159.853 289.98 161.758 292.579 163.087C295.177 164.415 298.007 165.079 301.068 165.079ZM324.023 146.715C322.291 148.621 320.038 150.382 317.266 151.999C314.494 153.616 311.722 154.424 308.951 154.424C306.929 154.424 305.168 153.905 303.667 152.865C302.223 151.826 301.126 150.526 300.375 148.967C299.624 147.408 299.249 145.877 299.249 144.376C299.249 139.929 301.126 136.204 304.879 133.202C308.633 130.141 315.014 127.715 324.023 125.925V146.715ZM381.368 165.945C385.814 165.945 390.088 164.992 394.188 163.087C398.346 161.181 401.695 158.553 404.236 155.204C406.777 151.797 408.048 148.043 408.048 143.943C408.048 140.074 407.037 136.666 405.016 133.721C402.995 130.718 400.54 128.206 397.653 126.185C394.823 124.164 391.098 121.883 386.479 119.342C382.667 117.205 379.693 115.415 377.556 113.971C375.42 112.527 373.629 110.882 372.186 109.034C370.742 107.128 370.02 105.02 370.02 102.71C370.02 99.8226 370.886 97.3683 372.619 95.3471C374.409 93.3259 376.777 92.3152 379.722 92.3152C383.071 92.3152 385.901 93.9611 388.211 97.2528C390.521 100.487 392.196 105.395 393.235 111.979C396.989 111.748 399.934 110.593 402.071 108.514C404.265 106.435 405.362 103.75 405.362 100.458C405.362 97.5704 404.467 94.9717 402.677 92.6617C400.945 90.294 398.461 88.4461 395.228 87.1178C391.994 85.7319 388.298 85.0389 384.14 85.0389C378.654 85.0389 373.947 86.2227 370.02 88.5904C366.151 90.9004 363.235 93.8167 361.271 97.3394C359.308 100.862 358.326 104.414 358.326 107.994C358.326 112.152 359.365 115.819 361.444 118.995C363.581 122.171 366.122 124.857 369.067 127.051C372.07 129.188 375.939 131.613 380.675 134.328C384.14 136.291 386.825 137.937 388.731 139.265C390.694 140.536 392.311 141.979 393.582 143.596C394.852 145.156 395.487 146.859 395.487 148.707C395.487 151.71 394.419 153.933 392.282 155.377C390.146 156.763 387.403 157.456 384.053 157.456C380.473 157.456 377.181 156.041 374.178 153.212C371.175 150.324 368.721 146.051 366.815 140.391C363.581 140.622 361.011 141.893 359.106 144.203C357.2 146.513 356.247 149.285 356.247 152.519C356.247 154.829 357.286 157.023 359.365 159.102C361.444 161.181 364.39 162.827 368.201 164.039C372.012 165.31 376.401 165.945 381.368 165.945ZM454.651 163L455.691 156.07L441.918 152.952V53.4213L439.752 51.2557L414.804 53.2481L413.765 59.8314L427.451 64.4225V152.952L414.198 156.157L413.245 163H454.651ZM453.092 138.139C458.347 145.242 462.563 150.584 465.739 154.164C468.915 157.745 472.005 160.401 475.008 162.134C478.068 163.808 481.476 164.646 485.229 164.646C488.001 164.646 491.437 164.097 495.538 163L496.49 156.33L493.025 155.81C490.138 155.464 487.568 154.569 485.316 153.125C483.121 151.681 481.014 149.833 478.992 147.581C477.029 145.329 474.315 141.922 470.85 137.359C468.02 133.548 466.028 130.949 464.873 129.563L458.03 120.814L478.559 95.6936L491.466 92.0554L492.679 85.6452H455.777L454.911 92.2286L466.432 95.6936L443.997 123.846V125.579L453.092 138.139ZM551.67 165.339C563.219 165.339 573.239 162.798 581.728 157.716C590.217 152.634 596.685 145.849 601.132 137.359C605.578 128.813 607.802 119.486 607.802 109.38C607.802 99.1585 605.78 89.7454 601.738 81.1408C597.695 72.4785 591.863 65.6063 584.24 60.5244C576.675 55.3848 567.839 52.8149 557.733 52.8149C546.414 52.8149 536.539 55.2115 528.108 60.0047C519.677 64.7401 513.18 71.3812 508.618 79.9281C504.113 88.4749 501.861 98.2923 501.861 109.38C501.861 119.775 503.94 129.246 508.098 137.793C512.256 146.282 518.117 153.009 525.682 157.976C533.248 162.885 541.91 165.339 551.67 165.339ZM553.575 61.1308C561.429 61.1308 567.984 63.6717 573.239 68.7537C578.494 73.8356 582.363 80.3612 584.846 88.3306C587.33 96.2999 588.571 104.645 588.571 113.365C588.571 125.781 586.146 136.031 581.295 144.116C576.444 152.143 568.012 156.157 556.001 156.157C548.089 156.157 541.506 153.731 536.251 148.88C531.053 143.972 527.213 137.59 524.73 129.737C522.304 121.883 521.091 113.451 521.091 104.443C521.091 75.568 531.919 61.1308 553.575 61.1308ZM645.916 165.079C652.557 165.079 658.823 163.722 664.713 161.008C670.661 158.236 675.426 154.338 679.006 149.313C682.644 144.289 684.463 138.543 684.463 132.075C684.463 127.456 683.279 123.442 680.912 120.035C678.544 116.628 675.657 113.769 672.249 111.459C668.842 109.091 664.251 106.377 658.476 103.316C652.932 100.313 648.543 97.7436 645.31 95.6069C642.133 93.4702 639.419 90.8426 637.167 87.7242C634.972 84.6058 633.875 80.9676 633.875 76.8096C633.875 71.3812 635.348 67.2811 638.293 64.5091C641.238 61.7372 645.021 60.3512 649.641 60.3512C651.777 60.3512 653.885 60.8132 655.964 61.7372C658.043 62.6034 659.804 63.7006 661.248 65.0288C662.75 66.2993 663.789 67.4832 664.367 68.5804L666.532 85.1255L675.108 86.165C675.281 83.6818 675.599 79.6682 676.061 74.1243C676.523 68.5804 676.84 64.4514 677.014 61.7372C670.084 55.9623 661.941 53.0748 652.586 53.0748C646.753 53.0748 641.267 54.2875 636.127 56.713C630.988 59.1385 626.83 62.6611 623.654 67.2811C620.477 71.901 618.889 77.3583 618.889 83.6529C618.889 89.0813 620.189 93.7878 622.787 97.7725C625.444 101.757 628.62 105.049 632.316 107.648C636.07 110.189 640.978 113.076 647.042 116.31C651.951 118.966 655.791 121.219 658.563 123.067C661.393 124.915 663.76 127.109 665.666 129.65C667.572 132.133 668.525 134.963 668.525 138.139C668.525 142.181 667.485 145.56 665.406 148.274C663.385 150.988 660.786 153.009 657.61 154.338C654.492 155.666 651.287 156.33 647.995 156.33C644.183 156.33 640.661 155.493 637.427 153.818C634.251 152.143 631.825 150.093 630.15 147.668L626.772 131.382L617.936 130.17L616.81 155.031C619.756 157.918 623.827 160.315 629.024 162.22C634.279 164.126 639.91 165.079 645.916 165.079Z" fill="black"/>
<path d="M111.467 136.998C121.176 133.088 128.058 123.587 128.058 112.431C128.058 105.633 125.464 99.4618 121.35 94.7214C125.553 90.0705 128.058 83.8096 128.058 77.0119C128.058 62.3436 116.251 50.5372 101.583 50.5372C94.2043 50.5372 87.55 53.5247 82.7582 58.3611C77.9665 53.5247 71.3122 50.5372 63.9336 50.5372C56.7961 50.5372 50.3363 53.3326 45.5846 57.8929C40.8329 53.3326 34.3731 50.5372 27.2357 50.5372C12.5672 50.5372 0.760925 62.3436 0.760925 77.0119C0.760925 83.8096 3.35478 89.981 7.469 94.7214C3.26533 99.3724 0.760925 105.633 0.760925 112.431C0.760925 123.275 7.21375 132.555 16.5054 136.657C15.4067 139.75 14.8091 143.085 14.8091 146.565C14.8091 162.874 27.9355 176 44.244 176C51.8016 176 58.6631 173.116 63.9336 168.542C69.1046 173.216 76.0656 176 83.6231 176C99.9317 176 113.058 162.874 113.058 146.565C113.058 143.219 112.499 140 111.467 136.998ZM32.2541 119.657C31.4267 120.024 30.6198 120.429 29.8352 120.868C28.9884 121.139 28.0853 121.286 27.1462 121.286C22.3164 121.196 18.2915 117.261 18.2915 112.431C18.2915 107.601 22.227 103.576 27.1462 103.576C31.976 103.576 36.0009 107.512 36.0009 112.431C36.0009 115.387 34.5263 118.042 32.2541 119.657ZM54.9894 77.0119C54.9894 72.1821 58.9249 68.1573 63.8441 68.1573C68.674 68.1573 72.6989 72.0927 72.6989 77.0119C72.6989 81.9313 68.7634 85.8667 63.8441 85.8667C59.0143 85.8667 54.9894 81.9313 54.9894 77.0119ZM54.9894 112.431C54.9894 107.601 58.9249 103.576 63.8442 103.576C68.674 103.576 72.6989 107.512 72.6989 112.431C72.6989 117.261 68.7634 121.286 63.8442 121.286C59.0143 121.196 54.9894 117.261 54.9894 112.431ZM18.2915 77.0119C18.2915 72.1821 22.227 68.1573 27.1462 68.1573C31.976 68.1573 36.0009 72.0927 36.0009 77.0119C36.0009 81.9313 32.0655 85.8667 27.1462 85.8667C22.3164 85.8667 18.2915 81.9313 18.2915 77.0119ZM92.6388 77.0121C92.6388 72.1821 96.5742 68.1573 101.493 68.1573C106.323 68.1573 110.348 72.0927 110.348 77.0119C110.348 81.9313 106.413 85.8667 101.493 85.8667C96.6636 85.8667 92.6388 81.9313 92.6388 77.0121ZM92.6388 112.431C92.6388 107.601 96.5742 103.576 101.493 103.576C106.323 103.576 110.348 107.512 110.348 112.431C110.348 117.261 106.413 121.286 101.493 121.286C96.6636 121.196 92.6388 117.261 92.6388 112.431ZM44.244 156.509C38.8741 156.509 34.3992 152.134 34.3992 146.665C34.3992 141.295 38.7747 136.82 44.244 136.82C49.7133 136.82 54.0888 141.195 54.0888 146.665C54.0888 152.034 49.7133 156.509 44.244 156.509ZM83.6231 156.509C78.2533 156.509 73.7784 152.134 73.7784 146.665C73.7784 141.295 78.1539 136.82 83.6231 136.82C88.9931 136.82 93.468 141.195 93.468 146.665C93.3685 152.034 88.9931 156.509 83.6231 156.509Z" fill="#8B5CF6"/>
<path d="M71.107 21.0224C70.8463 9.36643 61.3445 0.0268555 49.6251 0.0268555H27.7868V21.865C27.7868 33.7489 37.3904 43.3525 49.2743 43.3525H70.3959H85.4824C94.082 43.3525 101.032 36.4028 101.032 27.8032V12H85.2285C78.9611 12 73.5701 15.6913 71.107 21.0224Z" fill="#8B5CF6"/>
</svg>
