<svg width="887" height="153" viewBox="0 0 887 153" fill="none" xmlns="http://www.w3.org/2000/svg">
<path d="M280.94 106.112H275.13V30.3107H281.939C286.175 30.3107 289.443 32.9131 291.743 38.1178C294.043 43.3225 295.193 50.706 295.193 60.2681V69.4369C295.193 82.5092 293.952 91.8899 291.471 97.5787C289.05 103.268 285.54 106.112 280.94 106.112ZM283.755 121.635C290.412 121.635 296.343 120.486 301.547 118.186C306.752 115.886 310.928 112.89 314.075 109.199C317.222 105.507 319.825 101.119 321.882 96.0355C323.94 90.8913 325.332 85.7773 326.058 80.6936C326.845 75.61 327.238 70.2539 327.238 64.6256C327.238 48.0431 323.879 35.4246 317.162 26.7703C310.504 18.1159 299.46 13.7887 284.027 13.7887C281.304 13.7887 277.551 13.9098 272.77 14.1518C267.989 14.3939 263.571 14.5452 259.516 14.6057H245.082V121H259.516C264.358 121 269.048 121.091 273.587 121.272C278.187 121.514 281.576 121.635 283.755 121.635ZM377.533 74.0667H363.734V66.4412C363.734 64.2624 363.794 62.4771 363.916 61.0851C364.097 59.6327 364.46 58.2407 365.005 56.9093C365.55 55.5173 366.397 54.5187 367.547 53.9135C368.697 53.2478 370.179 52.9149 371.995 52.9149C374.113 52.9149 375.566 54.5187 376.352 57.7263C377.139 60.9338 377.533 66.3807 377.533 74.0667ZM370.27 122.906C373.901 122.906 377.714 122.483 381.708 121.635C385.703 120.788 389.848 119.154 394.145 116.733C398.503 114.252 401.801 111.196 404.04 107.565L398.684 98.3958C396.99 99.9693 394.872 101.331 392.33 102.481C389.848 103.631 387.367 104.478 384.886 105.023C382.465 105.567 380.195 105.84 378.077 105.84C375.898 105.84 374.053 105.658 372.54 105.295C371.027 104.932 369.544 104.206 368.091 103.116C366.639 102.027 365.519 100.332 364.733 98.0326C364.006 95.7329 363.643 92.7977 363.643 89.227V87.5022H405.13V77.4256C405.13 65.019 402.558 56.0317 397.413 50.4639C392.269 44.8355 383.736 42.0213 371.813 42.0213C359.407 42.0213 349.754 45.5012 342.855 52.461C335.955 59.4208 332.506 69.679 332.506 83.2355C332.506 88.9244 333.171 94.0988 334.503 98.7589C335.834 103.358 337.922 107.504 340.767 111.196C343.672 114.887 347.605 117.762 352.568 119.82C357.591 121.878 363.492 122.906 370.27 122.906ZM461.443 121C466.466 121 470.914 119.971 474.788 117.913C478.722 115.795 481.929 112.89 484.41 109.199C486.892 105.507 488.768 101.27 490.039 96.4894C491.31 91.6478 491.945 86.3825 491.945 80.6936C491.945 68.5896 489.585 59.1182 484.864 52.2795C480.204 45.4407 472.881 42.0213 462.896 42.0213C458.78 42.0213 455.179 42.7778 452.093 44.2908C449.006 45.8038 446.374 47.68 444.195 49.9192V43.8369H429.035L409.517 49.193V58.9064L414.964 62.2653V148.416H444.195V117.187C446.374 118.277 448.915 119.184 451.82 119.911C454.725 120.637 457.933 121 461.443 121ZM448.098 108.382C447.493 108.382 446.858 108.351 446.192 108.291C445.587 108.23 444.921 108.109 444.195 107.928V59.9958C446.313 58.7854 448.371 58.1802 450.368 58.1802C453.273 58.1802 455.633 59.5116 457.449 62.1745C459.325 64.8374 460.263 68.8922 460.263 74.339V89.7717C460.263 102.178 456.208 108.382 448.098 108.382ZM501.465 121H531.059V2.07809H525.159L496.018 6.6171V15.0596L501.465 18.3277V121ZM579.649 112.013C574.081 112.013 571.297 106.294 571.297 94.8553V65.3518C571.297 61.4785 572.023 58.4828 573.476 56.3646C574.928 54.2464 576.956 53.1873 579.558 53.1873C585.126 53.1873 587.91 59.088 587.91 70.8894V99.5759C587.91 103.449 587.183 106.505 585.731 108.745C584.339 110.923 582.312 112.013 579.649 112.013ZM578.922 122.906C593.266 122.906 603.766 119.578 610.423 112.921C617.141 106.263 620.5 95.975 620.5 82.0553C620.5 68.6199 617.322 58.6038 610.968 52.0071C604.674 45.3499 594.416 42.0213 580.193 42.0213C565.608 42.0213 555.078 45.5012 548.602 52.461C542.126 59.3603 538.888 69.6487 538.888 83.3263C538.888 97.1248 542.096 107.171 548.511 113.465C554.926 119.759 565.063 122.906 578.922 122.906ZM667.609 152.228C679.531 152.228 688.337 148.597 694.026 141.335C699.715 134.072 702.559 123.754 702.559 110.379V43.8369H667.972V54.2766L672.965 57.5447V100.211C672.118 100.938 671.301 101.543 670.514 102.027C669.788 102.511 669.031 102.905 668.244 103.207C667.458 103.449 666.671 103.57 665.884 103.57C663.221 103.57 661.436 102.935 660.528 101.664C659.681 100.332 659.257 98.2747 659.257 95.4908V43.8369H626.213V54.2766L629.481 57.5447V89.7717C629.481 101.755 631.327 110.288 635.019 115.372C638.711 120.395 645.065 122.906 654.083 122.906C656.443 122.906 658.743 122.422 660.982 121.454C663.282 120.486 665.218 119.336 666.792 118.004C668.365 116.612 669.757 115.251 670.968 113.919C672.239 112.527 673.177 111.347 673.782 110.379L674.69 108.926V116.733C674.629 120.365 674.236 123.421 673.51 125.902C672.783 128.383 671.724 130.29 670.332 131.621C668.94 133.013 667.367 133.982 665.612 134.526C663.857 135.071 661.769 135.343 659.348 135.343C651.722 135.343 646.155 134.345 642.644 132.348L637.924 142.152C640.466 145.238 644.49 147.689 649.998 149.505C655.505 151.321 661.375 152.228 667.609 152.228ZM744.473 79.8766V57.0908C744.473 46.1367 745.23 38.602 746.743 34.4866C748.316 30.3107 751.04 28.2228 754.913 28.2228C758.786 28.2228 761.57 30.341 763.265 34.5774C764.959 38.8138 765.807 45.2592 765.807 53.9135V75.7915C765.807 84.688 765.413 91.3754 764.627 95.8539C763.9 100.272 762.811 103.207 761.358 104.66C759.906 106.052 757.758 106.748 754.913 106.748C751.04 106.748 748.316 104.781 746.743 100.847C745.23 96.913 744.473 89.923 744.473 79.8766ZM753.007 122.906C760.39 122.906 766.775 122.089 772.161 120.455C777.608 118.761 782.056 116.461 785.506 113.556C788.956 110.591 791.709 106.778 793.767 102.118C795.825 97.3972 797.247 92.3438 798.034 86.9575C798.82 81.5712 799.214 75.2468 799.214 67.9844C799.214 63.0823 799.062 58.6946 798.76 54.8213C798.457 50.948 797.913 47.0445 797.126 43.1107C796.339 39.1769 795.28 35.7575 793.949 32.8525C792.678 29.8871 790.953 27.1031 788.774 24.5008C786.656 21.8984 784.144 19.7802 781.239 18.1462C778.334 16.5121 774.854 15.2412 770.8 14.3334C766.745 13.3651 762.176 12.8809 757.092 12.8809C749.708 12.8809 743.293 13.7282 737.846 15.4228C732.46 17.1173 728.042 19.4474 724.593 22.4128C721.203 25.3783 718.48 29.2516 716.422 34.0327C714.365 38.7532 712.942 43.8067 712.156 49.193C711.429 54.5792 711.066 60.9036 711.066 68.166C711.066 73.0681 711.218 77.4861 711.52 81.4199C711.823 85.2932 712.368 89.1967 713.154 93.1305C713.941 97.0038 714.97 100.393 716.241 103.298C717.572 106.203 719.297 108.926 721.415 111.468C723.594 114.01 726.136 116.098 729.041 117.732C731.946 119.366 735.395 120.637 739.39 121.545C743.445 122.452 747.984 122.906 753.007 122.906ZM840.328 122.906C851.524 122.906 860.058 119.79 865.928 113.556C871.859 107.262 874.824 98.1234 874.824 86.1405C874.824 78.757 872.736 72.4932 868.561 67.349C864.445 62.2048 857.97 57.7565 849.134 54.0043C848.286 53.4596 847.015 52.7636 845.321 51.9164C843.687 51.0086 842.386 50.2521 841.417 49.6469C840.51 49.0417 839.511 48.3154 838.422 47.4681C837.332 46.6209 836.545 45.6828 836.061 44.654C835.577 43.6251 835.335 42.4752 835.335 41.2043C835.335 36.3627 839.208 33.9419 846.955 33.9419C850.162 33.9419 853.521 34.6379 857.032 36.0298C860.602 37.3613 863.568 39.419 865.928 42.2029L870.467 24.6823C870.285 24.3797 869.983 23.9864 869.559 23.5022C869.136 22.9575 868.107 22.0497 866.473 20.7788C864.899 19.4473 863.144 18.2975 861.207 17.3291C859.271 16.3608 856.578 15.4833 853.128 14.6965C849.739 13.8492 846.108 13.4256 842.234 13.4256C817.845 13.4256 805.65 24.2284 805.65 45.8341C805.65 49.8284 806.255 53.5807 807.466 57.0908C808.676 60.5405 810.068 63.3849 811.641 65.6242C813.215 67.8029 815.242 69.9211 817.724 71.9788C820.266 73.9759 822.293 75.4284 823.806 76.3362C825.319 77.1835 827.165 78.1518 829.344 79.2412C835.335 82.1461 839.541 84.6274 841.962 86.6851C844.443 88.7428 845.684 91.2241 845.684 94.1291C845.684 96.8525 844.595 98.7286 842.416 99.7575C840.298 100.786 836.818 101.301 831.976 101.301C827.135 101.301 822.626 100.09 818.45 97.6695C814.274 95.1882 810.945 92.2832 808.464 88.9546L806.195 111.014C807.345 112.225 808.767 113.435 810.461 114.645C812.216 115.856 814.456 117.127 817.179 118.458C819.902 119.79 823.261 120.849 827.256 121.635C831.31 122.483 835.668 122.906 840.328 122.906Z" fill="black"/>
<path d="M146.482 34.8506C134.563 34.8506 123.414 39.8487 115.724 47.538C108.996 22.5477 85.9282 3.90106 58.8233 3.90106C26.3359 3.90106 0 30.2371 0 62.7245C0 95.2119 26.3359 121.355 58.8233 121.355H146.482C170.511 121.355 189.926 101.94 189.926 77.9109C189.926 53.8817 170.511 34.8506 146.482 34.8506ZM32.6106 63.9627C47.5941 78.9461 71.8657 78.9461 86.849 63.9627L93.6288 70.7425C74.9166 89.4548 44.5431 89.4548 25.8309 70.7425L32.6106 63.9627Z" fill="black"/>
</svg>
