<svg width="636" height="152" viewBox="0 0 636 152" fill="none" xmlns="http://www.w3.org/2000/svg">
<path d="M158.192 123V11.2349H167.417V61.4405H227.558V11.2349H236.783V123H227.558V68.8915H167.417V123H158.192ZM265.086 123V39.6197H274.311V123H265.086ZM269.876 18.1537C267.983 18.1537 266.328 17.5624 264.908 16.3797C263.607 15.0787 262.957 13.3046 262.957 11.0575C262.957 8.69212 263.607 6.85893 264.908 5.55796C266.209 4.25699 267.806 3.60651 269.698 3.60651C271.472 3.60651 273.01 4.25699 274.311 5.55796C275.73 6.74067 276.44 8.57385 276.44 11.0575C276.44 13.4229 275.789 15.197 274.488 16.3797C273.187 17.5624 271.65 18.1537 269.876 18.1537ZM301.616 123V39.6197H307.648L309.777 56.2958C311.787 50.9736 315.217 46.7159 320.066 43.5226C324.915 40.2111 330.356 38.5553 336.387 38.5553C339.226 38.5553 341.709 38.7918 343.838 39.2649C345.967 39.738 347.623 40.2702 348.806 40.8615L347.032 49.0222C345.612 48.4308 344.016 47.8986 342.242 47.4255C340.468 46.9524 338.398 46.7159 336.032 46.7159C332.603 46.7159 329.35 47.3073 326.275 48.4899C323.318 49.6726 320.657 51.5058 318.292 53.9895C316.045 56.4732 314.212 59.6073 312.792 63.392C311.491 67.0583 310.841 71.4343 310.841 76.5199V123H301.616ZM424.2 81.3099H364.769V83.7935C364.769 94.2013 367.549 102.362 373.107 108.275C378.784 114.071 386.472 116.968 396.17 116.968C403.857 116.968 411.072 115.667 417.813 113.065L419.942 120.162C416.867 121.462 413.142 122.468 408.766 123.177C404.508 124.005 400.132 124.419 395.638 124.419C390.079 124.419 384.816 123.591 379.849 121.936C375 120.28 370.742 117.737 367.076 114.307C363.409 110.759 360.512 106.324 358.383 101.002C356.254 95.5614 355.189 89.0565 355.189 81.4873C355.189 74.9824 356.076 69.0689 357.85 63.7468C359.625 58.4246 362.167 53.9304 365.479 50.264C368.79 46.4794 372.693 43.5817 377.188 41.5712C381.682 39.5606 386.708 38.5553 392.267 38.5553C396.998 38.5553 401.315 39.4423 405.218 41.2163C409.239 42.8721 412.609 45.2967 415.33 48.4899C418.168 51.6832 420.356 55.527 421.894 60.0213C423.431 64.5155 424.2 69.4829 424.2 74.9233V81.3099ZM414.62 73.8588C414.62 70.429 414.206 67.0583 413.378 63.7468C412.55 60.3169 411.19 57.3011 409.298 54.6991C407.524 52.0972 405.158 50.0275 402.202 48.4899C399.363 46.8342 395.874 46.0063 391.735 46.0063C384.52 46.0063 378.489 48.4308 373.64 53.2799C368.909 58.1289 366.07 64.9886 365.124 73.8588H414.62ZM489.247 9.81569C495.988 9.81569 502.315 10.9984 508.229 13.3638C514.142 15.7292 519.287 19.3364 523.663 24.1855C528.157 28.9163 531.646 34.8889 534.13 42.1034C536.732 49.1996 538.033 57.5376 538.033 67.1175C538.033 76.4608 536.732 84.6805 534.13 91.7767C531.528 98.8729 527.98 104.846 523.486 109.695C518.991 114.544 513.728 118.21 507.697 120.694C501.665 123.177 495.278 124.419 488.537 124.419C481.796 124.419 475.468 123.237 469.555 120.871C463.641 118.506 458.437 114.958 453.943 110.227C449.567 105.378 446.078 99.4052 443.476 92.309C440.992 85.0945 439.751 76.6973 439.751 67.1175C439.751 57.7741 441.052 49.5544 443.653 42.4582C446.255 35.362 449.804 29.3894 454.298 24.5403C458.792 19.6912 464.055 16.0249 470.087 13.5412C476.119 11.0575 482.505 9.81569 489.247 9.81569ZM449.33 67.1175C449.33 75.6329 450.395 83.0248 452.524 89.2931C454.771 95.4431 457.728 100.588 461.394 104.727C465.06 108.867 469.259 111.942 473.99 113.952C478.839 115.963 483.924 116.968 489.247 116.968C494.45 116.968 499.418 115.963 504.149 113.952C508.879 111.942 513.019 108.867 516.567 104.727C520.233 100.588 523.131 95.4431 525.26 89.2931C527.389 83.0248 528.453 75.6329 528.453 67.1175C528.453 58.4838 527.329 51.0328 525.082 44.7644C522.953 38.3779 520.056 33.174 516.389 29.1528C512.723 25.1316 508.465 22.1749 503.616 20.2826C498.886 18.272 493.859 17.2667 488.537 17.2667C483.333 17.2667 478.366 18.272 473.635 20.2826C468.904 22.2932 464.706 25.3682 461.039 29.5076C457.491 33.6471 454.653 38.851 452.524 45.1193C450.395 51.2693 449.33 58.602 449.33 67.1175ZM589.921 9.81569C595.007 9.81569 599.915 10.3479 604.646 11.4123C609.376 12.3585 614.107 13.9551 618.838 16.2023L616.354 23.4759C611.387 21.1105 606.834 19.5138 602.694 18.6859C598.673 17.7398 594.534 17.2667 590.276 17.2667C582.47 17.2667 576.143 19.0999 571.294 22.7662C566.563 26.3143 564.197 31.2817 564.197 37.6682C564.197 43.5817 566.03 48.2534 569.697 51.6832C573.363 54.9948 578.863 57.8924 586.196 60.3761L598.791 64.6338C606.952 67.354 613.102 71.316 617.241 76.5199C621.499 81.6055 623.628 87.4599 623.628 94.083C623.628 103.426 620.376 110.818 613.871 116.259C607.366 121.699 598.555 124.419 587.437 124.419C581.76 124.419 576.143 123.887 570.584 122.823C565.143 121.758 559.762 119.925 554.44 117.323L557.101 109.695C561.95 112.178 566.74 114.011 571.471 115.194C576.32 116.259 581.406 116.791 586.728 116.791C594.652 116.791 601.157 115.017 606.242 111.469C611.446 107.921 614.048 102.48 614.048 95.1474C614.048 92.6638 613.693 90.2984 612.984 88.0512C612.274 85.8041 611.032 83.6753 609.258 81.6647C607.602 79.6541 605.296 77.7618 602.339 75.9877C599.383 74.2137 595.657 72.5579 591.163 71.0204L579.099 67.1175C575.669 66.053 572.476 64.6929 569.519 63.0371C566.563 61.2631 563.961 59.2525 561.714 57.0054C559.467 54.64 557.692 51.9789 556.391 49.0222C555.209 46.0654 554.617 42.7539 554.617 39.0875C554.617 30.099 557.692 23.0028 563.843 17.7989C569.993 12.4768 578.685 9.81569 589.921 9.81569Z" fill="black"/>
<path d="M52.1514 57.4557L52.3041 66.3121C73.2238 66.3121 90.326 83.4144 90.326 104.334C90.326 125.254 73.2238 142.356 52.304 142.356C40.8516 142.356 30.1628 137.47 22.6805 128.46C21.1535 126.628 18.2522 126.323 16.4199 127.85C14.5875 129.377 14.2821 132.278 15.809 134.11C24.8183 144.952 37.9503 151.213 51.9986 151.213C78.1101 151.213 99.0298 129.987 99.0298 104.334C99.0298 78.6807 77.8048 57.4557 52.1514 57.4557ZM76.4305 104.334C76.4305 117.619 65.5888 128.613 52.1513 128.613C44.9745 128.613 38.1031 125.407 33.5221 119.909C31.9951 118.077 29.0939 117.772 27.2615 119.299C25.4291 120.826 25.1237 123.727 26.6506 125.559C32.9112 133.194 42.2259 137.622 52.1513 137.622C70.4752 137.622 85.2869 122.811 85.2869 104.487C85.2869 86.163 70.4752 71.3512 52.1514 71.3512L52.3041 80.2077C65.5888 80.055 76.4305 91.0494 76.4305 104.334ZM62.3822 104.334C62.3822 109.831 57.8012 114.412 52.3041 114.412C49.2501 114.412 46.3488 113.038 44.5164 110.747C42.9894 108.915 40.0881 108.61 38.2557 110.137C36.4234 111.664 36.1179 114.565 37.6449 116.397C41.4624 120.826 46.6542 123.269 52.4567 123.269C62.993 123.269 71.5441 114.718 71.5441 104.181C71.5441 93.6452 62.993 85.0941 52.4567 85.0941L52.1513 93.6452C57.8012 94.2559 62.3822 98.8369 62.3822 104.334Z" fill="#222326"/>
<path d="M46.8785 93.7569L46.7259 84.9004C25.8062 84.9004 8.70382 67.7981 8.70382 46.8784C8.70382 25.9586 25.8062 8.85644 46.7259 8.85644C58.1783 8.85644 68.8672 13.7429 76.3493 22.7521C77.8764 24.5845 80.7777 24.8899 82.6101 23.3628C84.4425 21.8358 84.7479 18.9346 83.2208 17.1022C74.2117 6.26059 61.0795 0 47.0313 0C20.9197 0 0 21.225 0 46.8784C0 72.5318 21.2252 93.7569 46.8785 93.7569ZM22.5995 46.8784C22.5995 33.5937 33.4411 22.5993 46.8785 22.5993C54.0554 22.5993 60.9268 25.806 65.5078 31.3031C67.0348 33.1355 69.9361 33.4409 71.7685 31.914C73.6009 30.387 73.9063 27.4857 72.3792 25.6534C66.1186 18.0183 56.804 13.5901 46.8785 13.5901C28.5547 13.5901 13.7429 28.4019 13.7429 46.7257C13.7429 65.0495 28.5547 79.8613 46.8785 79.8613L46.7259 71.0048C33.4411 71.1575 22.5995 60.1632 22.5995 46.8784ZM36.6478 46.8784C36.6478 41.3813 41.2287 36.8002 46.7259 36.8002C49.7798 36.8002 52.6811 38.1746 54.5135 40.4651C56.0405 42.2975 58.9418 42.6028 60.7741 41.0758C62.6065 39.5489 62.9119 36.6476 61.3849 34.8152C57.5675 30.387 52.3757 27.9438 46.5732 27.9438C36.0369 27.9438 27.4858 36.495 27.4858 47.0312C27.4858 57.5673 36.0369 66.1184 46.5732 66.1184L46.8785 57.5673C41.2287 56.9565 36.6478 52.3756 36.6478 46.8784Z" fill="#222326"/>
</svg>
