<svg width="950" height="152" viewBox="0 0 950 152" fill="none" xmlns="http://www.w3.org/2000/svg">
<path d="M289.036 150H262.57V104.068H220.394V150H194.099V34.9142H220.394V81.6998H262.57V34.9142H289.036V150ZM388.848 150H363.918V136.169C359.365 145.845 350.6 150.683 337.623 150.683C328.743 150.683 321.8 148.236 316.791 143.341C311.896 138.332 309.449 130.99 309.449 121.314V63.4295H334.378V115.679C334.378 125.81 338.818 130.876 347.697 130.876C358.511 130.876 363.918 123.648 363.918 109.191V63.4295H388.848V150ZM536.389 150H511.46V98.6041C511.46 93.7093 510.492 89.8389 508.557 86.9931C506.622 84.1473 503.833 82.7243 500.19 82.7243C496.32 82.7243 492.848 84.318 489.774 87.5053C486.815 90.5789 485.335 96.1567 485.335 104.239V150H460.405V98.6041C460.405 93.7093 459.438 89.8389 457.503 86.9931C455.567 84.1473 452.779 82.7243 449.136 82.7243C445.266 82.7243 441.794 84.318 438.72 87.5053C435.76 90.5789 434.281 96.1567 434.281 104.239V150H409.351V63.4295H434.281V76.9188C439.062 67.3568 447.201 62.5758 458.698 62.5758C470.878 62.5758 478.96 68.0398 482.944 78.9678C484.88 73.8453 488.124 69.8611 492.677 67.0153C497.231 64.0556 502.581 62.5758 508.728 62.5758C517.265 62.5758 523.981 65.3078 528.876 70.7718C533.885 76.122 536.389 84.0334 536.389 94.5061V150ZM587.849 132.925C591.378 132.925 594.11 131.844 596.045 129.681C597.98 127.518 598.948 124.558 598.948 120.802V114.484H590.923C586.711 114.484 583.467 115.395 581.19 117.216C578.913 119.037 577.775 121.371 577.775 124.217C577.775 130.022 581.133 132.925 587.849 132.925ZM600.143 139.413C596.501 146.813 589.329 150.512 578.629 150.512C570.205 150.512 563.603 148.122 558.822 143.341C554.154 138.56 551.821 132.583 551.821 125.412C551.821 117.102 554.837 110.67 560.871 106.117C567.018 101.45 576.067 99.1164 588.02 99.1164H598.948V93.1401C598.948 85.8548 594.11 82.2121 584.434 82.2121C575.1 82.2121 566.448 84.8303 558.48 90.0666V67.6983C565.31 63.828 575.157 61.8928 588.02 61.8928C600.314 61.8928 609.478 64.5679 615.511 69.9181C621.544 75.1544 624.561 83.3504 624.561 94.5061V150H600.143V139.413ZM723.532 150H698.602V98.4334C698.602 93.3109 697.407 89.4405 695.016 86.8223C692.626 84.0903 689.268 82.7243 684.942 82.7243C680.389 82.7243 676.575 84.5457 673.502 88.1883C670.542 91.7172 669.062 97.0674 669.062 104.239V150H644.133V63.4295H669.062V78.1141C671.225 73.3331 674.526 69.5766 678.966 66.8445C683.519 63.9987 688.926 62.5758 695.187 62.5758C704.066 62.5758 711.01 65.2509 716.019 70.6011C721.027 75.8374 723.532 83.5781 723.532 93.8231V150ZM851.779 92.1156C851.779 109.76 846.656 124.046 836.411 134.974C826.28 145.788 812.734 151.195 795.773 151.195C778.698 151.195 765.094 145.788 754.963 134.974C744.832 124.16 739.766 109.874 739.766 92.1156C739.766 74.4714 744.832 60.2422 754.963 49.428C765.208 38.5 778.811 33.036 795.773 33.036C812.848 33.036 826.451 38.4431 836.582 49.2573C846.713 60.0714 851.779 74.3576 851.779 92.1156ZM775.453 66.503C770.445 72.7639 767.94 81.3014 767.94 92.1156C767.94 102.93 770.445 111.524 775.453 117.899C780.462 124.16 787.235 127.29 795.773 127.29C804.31 127.29 811.083 124.16 816.092 117.899C821.101 111.524 823.605 102.93 823.605 92.1156C823.605 81.3014 821.101 72.7639 816.092 66.503C811.083 60.1284 804.31 56.941 795.773 56.941C787.235 56.941 780.462 60.1284 775.453 66.503ZM941.308 116.533C941.308 126.892 937.495 135.315 929.868 141.804C922.241 148.179 912.11 151.366 899.474 151.366C885.928 151.366 874.886 148.975 866.349 144.194V117.728C876.707 125.241 887.749 128.998 899.474 128.998C903.458 128.998 906.759 127.973 909.378 125.924C911.996 123.761 913.305 120.972 913.305 117.557C913.305 116.419 913.134 115.338 912.793 114.313C912.451 113.289 911.825 112.321 910.914 111.41C910.004 110.5 909.093 109.76 908.182 109.191C907.386 108.508 906.133 107.768 904.426 106.971C902.832 106.06 901.466 105.32 900.328 104.751C899.19 104.182 897.482 103.385 895.205 102.361C893.042 101.336 891.278 100.539 889.912 99.9701C882.513 96.5551 876.537 92.3433 871.983 87.3346C867.544 82.3259 865.324 75.6667 865.324 67.3568C865.324 57.4533 868.967 49.4849 876.252 43.4517C883.537 37.3047 893.612 34.2312 906.475 34.2312C917.972 34.2312 927.876 36.1664 936.185 40.0367V64.6248C926.965 59.2746 917.403 56.5995 907.499 56.5995C903.06 56.5995 899.645 57.5102 897.254 59.3315C894.978 61.1529 893.839 63.4865 893.839 66.3323C893.839 69.1781 895.262 71.7394 898.108 74.0161C900.954 76.1789 905.223 78.5125 910.914 81.0168C914.443 82.6105 917.346 84.0334 919.623 85.2856C922.013 86.4239 924.688 88.0745 927.648 90.2374C930.721 92.2864 933.112 94.5061 934.819 96.8966C936.641 99.1733 938.178 102.019 939.43 105.434C940.682 108.849 941.308 112.549 941.308 116.533Z" fill="black"/>
<path d="M25.8822 23.9933C25.763 -5.24148 25.3497 0.577877 25.9117 0.295955H0V39.9677H0.721809C0.310187 40.4281 0.077578 40.9125 0.077578 41.4747V45.3744V71.3722V89.8074C0.0265883 89.9817 0 90.1627 0 90.3526V94.2523V120.25V151.778H25.9117V129.867H25.9893V105.045C26.1799 104.336 26.6936 103.772 27.2074 103.514L63.6457 80.7658C64.6173 80.1159 65.589 80.1159 66.5607 80.7658L102.837 103.514C103.485 104.001 103.971 104.651 103.971 105.626V151.778H129.882V129.867H129.96V71.3722V45.3744V41.4747C129.96 40.4997 129.312 39.6873 128.664 39.3623L66.4763 0.365591C65.3427 -0.121842 64.2091 -0.121842 63.5613 0.365591L25.8822 23.9933ZM25.9893 72.7554V56.7485C25.9893 55.7735 26.6371 54.9611 27.2848 54.6361L63.7232 31.8879C64.6949 31.2381 65.6666 31.2381 66.6383 31.8879L102.915 54.6361C103.563 55.1236 104.048 55.7735 104.048 56.7485V72.8526L66.3988 49.2435C65.2651 48.756 64.1315 48.756 63.4837 49.2435L25.9893 72.7554ZM78.0591 112.106H52.1473V151.778H78.0591C78.0591 104.651 77.4113 112.431 78.0591 112.106Z" fill="black"/>
</svg>
