<svg width="146" height="38" viewBox="0 0 146 38" fill="none" xmlns="http://www.w3.org/2000/svg">
<path d="M38.598 11.4545H41.2614L45.892 22.7614H46.0625L50.6932 11.4545H53.3565V26H51.2685V15.4744H51.1335L46.8438 25.9787H45.1108L40.821 15.4673H40.6861V26H38.598V11.4545ZM59.3515 26.2415C58.6602 26.2415 58.0352 26.1136 57.4765 25.858C56.9178 25.5975 56.4751 25.2211 56.1484 24.7287C55.8264 24.2363 55.6654 23.6326 55.6654 22.9176C55.6654 22.3021 55.7838 21.7955 56.0205 21.3977C56.2573 21 56.5769 20.6851 56.9793 20.4531C57.3818 20.2211 57.8316 20.0459 58.3288 19.9276C58.8259 19.8092 59.3326 19.7192 59.8486 19.6577C60.5021 19.5819 61.0324 19.5204 61.4396 19.473C61.8468 19.4209 62.1427 19.3381 62.3273 19.2244C62.512 19.1108 62.6043 18.9261 62.6043 18.6705V18.6207C62.6043 18.0005 62.4291 17.5199 62.0788 17.179C61.7331 16.8381 61.217 16.6676 60.5305 16.6676C59.8155 16.6676 59.2521 16.8262 58.8401 17.1435C58.4329 17.456 58.1512 17.804 57.995 18.1875L55.9992 17.733C56.236 17.0701 56.5816 16.535 57.0361 16.1278C57.4954 15.7159 58.0234 15.4176 58.62 15.233C59.2165 15.0436 59.8439 14.9489 60.5021 14.9489C60.9377 14.9489 61.3993 15.0009 61.887 15.1051C62.3794 15.2045 62.8387 15.3892 63.2648 15.6591C63.6957 15.929 64.0485 16.3149 64.3231 16.8168C64.5977 17.3139 64.735 17.9602 64.735 18.7557V26H62.6611V24.5085H62.5759C62.4386 24.7831 62.2326 25.053 61.958 25.3182C61.6834 25.5833 61.3307 25.8035 60.8998 25.9787C60.4689 26.1539 59.9528 26.2415 59.3515 26.2415ZM59.8131 24.5369C60.4003 24.5369 60.9022 24.4209 61.3188 24.1889C61.7402 23.9569 62.0598 23.6539 62.2776 23.2798C62.5002 22.901 62.6114 22.4962 62.6114 22.0653V20.6591C62.5357 20.7348 62.3889 20.8059 62.1711 20.8722C61.958 20.9337 61.7142 20.9882 61.4396 21.0355C61.1649 21.0781 60.8974 21.1184 60.637 21.1562C60.3766 21.1894 60.1588 21.2178 59.9836 21.2415C59.5717 21.2936 59.1952 21.3812 58.8543 21.5043C58.5182 21.6274 58.2483 21.8049 58.0447 22.0369C57.8458 22.2642 57.7464 22.5672 57.7464 22.946C57.7464 23.4716 57.9405 23.8693 58.3288 24.1392C58.717 24.4044 59.2118 24.5369 59.8131 24.5369ZM71.9374 30.3182C71.0709 30.3182 70.3251 30.2045 69.7001 29.9773C69.0799 29.75 68.5732 29.4493 68.1803 29.0753C67.7873 28.7012 67.4937 28.2917 67.2996 27.8466L69.1249 27.0938C69.2527 27.3021 69.4232 27.5223 69.6362 27.7543C69.854 27.991 70.1476 28.1922 70.5169 28.358C70.891 28.5237 71.3715 28.6065 71.9587 28.6065C72.7636 28.6065 73.4288 28.41 73.9544 28.017C74.48 27.6288 74.7428 27.0085 74.7428 26.1562V24.0114H74.6078C74.48 24.2434 74.2953 24.5014 74.0538 24.7855C73.8171 25.0696 73.4904 25.3158 73.0737 25.5241C72.6571 25.7325 72.1149 25.8366 71.4473 25.8366C70.5856 25.8366 69.809 25.6354 69.1178 25.233C68.4312 24.8258 67.8867 24.2268 67.4842 23.4361C67.0865 22.6406 66.8876 21.6629 66.8876 20.5028C66.8876 19.3428 67.0841 18.3485 67.4771 17.5199C67.8749 16.6913 68.4194 16.0568 69.1107 15.6165C69.8019 15.1714 70.5856 14.9489 71.4615 14.9489C72.1386 14.9489 72.6855 15.0625 73.1021 15.2898C73.5188 15.5123 73.8431 15.7727 74.0751 16.071C74.3119 16.3693 74.4942 16.6321 74.622 16.8594H74.7783V15.0909H76.8592V26.2415C76.8592 27.179 76.6414 27.9484 76.2058 28.5497C75.7702 29.151 75.1807 29.5961 74.4374 29.8849C73.6987 30.1738 72.8654 30.3182 71.9374 30.3182ZM71.9161 24.0753C72.5268 24.0753 73.0429 23.9332 73.4643 23.6491C73.8905 23.3603 74.2125 22.9484 74.4303 22.4134C74.6528 21.8736 74.7641 21.2273 74.7641 20.4744C74.7641 19.7405 74.6552 19.0942 74.4374 18.5355C74.2196 17.9768 73.9 17.5412 73.4786 17.2287C73.0572 16.9115 72.5363 16.7528 71.9161 16.7528C71.2768 16.7528 70.7442 16.9186 70.318 17.25C69.8919 17.5767 69.5699 18.0218 69.3521 18.5852C69.1391 19.1487 69.0325 19.7784 69.0325 20.4744C69.0325 21.1894 69.1414 21.8168 69.3592 22.3565C69.577 22.8963 69.899 23.3177 70.3251 23.6207C70.756 23.9238 71.2863 24.0753 71.9161 24.0753ZM79.5072 26V15.0909H81.6308V26H79.5072ZM80.5797 13.4077C80.2104 13.4077 79.8931 13.2846 79.628 13.0384C79.3676 12.7874 79.2374 12.4891 79.2374 12.1435C79.2374 11.7931 79.3676 11.4948 79.628 11.2486C79.8931 10.9976 80.2104 10.8722 80.5797 10.8722C80.949 10.8722 81.2639 10.9976 81.5243 11.2486C81.7894 11.4948 81.922 11.7931 81.922 12.1435C81.922 12.4891 81.7894 12.7874 81.5243 13.0384C81.2639 13.2846 80.949 13.4077 80.5797 13.4077ZM88.8829 26.2202C87.827 26.2202 86.9179 25.9811 86.1556 25.5028C85.398 25.0199 84.8156 24.3546 84.4085 23.5071C84.0013 22.6596 83.7977 21.6889 83.7977 20.5952C83.7977 19.4872 84.006 18.5095 84.4227 17.6619C84.8393 16.8097 85.4264 16.1444 86.184 15.6662C86.9416 15.188 87.8341 14.9489 88.8616 14.9489C89.6902 14.9489 90.4288 15.1027 91.0775 15.4105C91.7262 15.7135 92.2494 16.1397 92.6471 16.6889C93.0496 17.2382 93.2887 17.8797 93.3644 18.6136H91.2977C91.184 18.1023 90.9236 17.6619 90.5164 17.2926C90.1139 16.9233 89.5742 16.7386 88.8971 16.7386C88.3052 16.7386 87.7868 16.8949 87.3417 17.2074C86.9014 17.5152 86.5581 17.9555 86.3119 18.5284C86.0656 19.0966 85.9425 19.7689 85.9425 20.5455C85.9425 21.3409 86.0633 22.0275 86.3048 22.6051C86.5462 23.1828 86.8871 23.6302 87.3275 23.9474C87.7726 24.2647 88.2958 24.4233 88.8971 24.4233C89.2996 24.4233 89.6641 24.3499 89.9908 24.2031C90.3223 24.0516 90.5993 23.8362 90.8218 23.5568C91.0491 23.2775 91.2077 22.9413 91.2977 22.5483H93.3644C93.2887 23.2538 93.059 23.8835 92.6755 24.4375C92.292 24.9915 91.7782 25.4271 91.1343 25.7443C90.4951 26.0616 89.7446 26.2202 88.8829 26.2202ZM100.699 26V11.4545H102.893V24.1108H109.484V26H100.699ZM111.617 26V15.0909H113.741V26H111.617ZM112.69 13.4077C112.321 13.4077 112.003 13.2846 111.738 13.0384C111.478 12.7874 111.348 12.4891 111.348 12.1435C111.348 11.7931 111.478 11.4948 111.738 11.2486C112.003 10.9976 112.321 10.8722 112.69 10.8722C113.059 10.8722 113.374 10.9976 113.634 11.2486C113.9 11.4948 114.032 11.7931 114.032 12.1435C114.032 12.4891 113.9 12.7874 113.634 13.0384C113.374 13.2846 113.059 13.4077 112.69 13.4077ZM118.521 19.5227V26H116.398V15.0909H118.436V16.8665H118.571C118.822 16.2888 119.215 15.8248 119.75 15.4744C120.29 15.1241 120.969 14.9489 121.788 14.9489C122.532 14.9489 123.183 15.1051 123.742 15.4176C124.3 15.7254 124.734 16.1847 125.041 16.7955C125.349 17.4062 125.503 18.1615 125.503 19.0611V26H123.379V19.3168C123.379 18.526 123.173 17.9081 122.762 17.4631C122.35 17.0133 121.784 16.7884 121.064 16.7884C120.572 16.7884 120.134 16.8949 119.75 17.108C119.371 17.321 119.071 17.6335 118.848 18.0455C118.63 18.4527 118.521 18.9451 118.521 19.5227ZM130.104 22.2997L130.09 19.7074H130.459L134.806 15.0909H137.348L132.391 20.3466H132.057L130.104 22.2997ZM128.151 26V11.4545H130.275V26H128.151ZM135.04 26L131.134 20.8153L132.597 19.331L137.647 26H135.04Z" fill="currentColor"/>
<path d="M20.519 9H18.9035C18.9035 13.1969 21.341 16.8015 24.8405 18.4277C24.4985 18.5508 24.1625 18.6908 23.8355 18.8446C20.42 16.9554 18.0965 13.2585 18.0965 9H16.481C16.481 13.8046 12.6845 17.6985 8 17.6985V19.3554C12.0905 19.3554 15.6065 16.8554 17.192 13.2677C17.312 13.6185 17.4485 13.96 17.597 14.2954C15.755 17.7985 12.152 20.1831 8 20.1831V21.84C12.6845 21.84 16.481 25.7338 16.481 30.5385H18.0965C18.0965 26.3446 15.662 22.7385 12.1655 21.1108C12.5045 20.9877 12.8345 20.8461 13.16 20.6938C16.577 22.5815 18.9035 26.2785 18.9035 30.5385H20.519C20.519 25.7338 24.3155 21.84 29 21.84V20.1831C24.9095 20.1831 21.395 22.6831 19.808 26.2723C19.688 25.9215 19.5515 25.58 19.403 25.2446C21.245 21.74 24.8465 19.3554 29 19.3554V17.6985C24.3155 17.6985 20.519 13.8046 20.519 9ZM18.4985 23.5554C17.54 22.0431 16.2815 20.7508 14.807 19.7677C16.2815 18.7846 17.543 17.4954 18.5 15.9831C19.4585 17.4954 20.717 18.7877 22.1915 19.7692C20.717 20.7523 19.457 22.0431 18.4985 23.5554Z" fill="currentColor"/>
</svg>
