<svg width="858" height="153" viewBox="0 0 858 153" fill="none" xmlns="http://www.w3.org/2000/svg">
<path d="M366.469 133.209L351.018 136.27L336.016 42.5985L311.386 123.73L292.875 125.895L264.96 47.1514L251.451 132.762L235.702 130.597L256.377 21.7744H271.827L301.906 107.832L328.702 22.67L346.242 22.2222L366.469 133.209ZM417.969 123.133C420.606 123.133 423.219 122.735 425.806 121.939C428.394 121.093 430.782 119.899 432.971 118.356C435.161 116.764 437.052 114.799 438.644 112.46C440.286 110.121 441.48 107.409 442.227 104.324L456.632 107.235C455.239 111.763 453.273 115.868 450.735 119.551C448.198 123.233 445.237 126.392 441.853 129.03C438.47 131.667 434.738 133.707 430.658 135.15C426.627 136.593 422.398 137.315 417.969 137.315C411.401 137.315 405.579 136.319 400.504 134.329C395.428 132.339 391.149 129.527 387.666 125.895C384.183 122.262 381.521 117.884 379.68 112.759C377.888 107.633 376.993 101.911 376.993 95.5917C376.993 89.3718 378.038 83.5749 380.127 78.201C382.267 72.7773 385.178 68.075 388.86 64.0943C392.542 60.1136 396.871 56.9788 401.847 54.6899C406.823 52.401 412.197 51.2565 417.969 51.2565C423.144 51.2565 428.02 52.2766 432.598 54.3167C437.176 56.3071 441.231 59.0936 444.764 62.6762C448.297 66.2091 451.208 70.3888 453.497 75.2154C455.786 80.0421 457.229 85.2667 457.826 90.8895L393.189 100.518C393.537 104.051 394.408 107.235 395.802 110.072C397.195 112.858 398.961 115.222 401.101 117.162C403.29 119.103 405.803 120.596 408.639 121.641C411.525 122.636 414.635 123.133 417.969 123.133ZM438.569 81.2611L438.121 79.843C436.231 74.9169 433.618 71.0606 430.284 68.2741C427 65.4876 422.895 64.0943 417.969 64.0943C415.879 64.0943 413.59 64.4675 411.102 65.2139C408.614 65.9105 406.201 67.1296 403.862 68.8712C401.524 70.6127 399.409 72.9514 397.518 75.8872C395.677 78.7732 394.383 82.3807 393.637 86.7097L438.569 81.2611ZM508.58 123.133C511.217 123.133 513.83 122.735 516.417 121.939C519.005 121.093 521.393 119.899 523.582 118.356C525.772 116.764 527.663 114.799 529.255 112.46C530.897 110.121 532.091 107.409 532.838 104.324L547.243 107.235C545.85 111.763 543.884 115.868 541.346 119.551C538.809 123.233 535.848 126.392 532.464 129.03C529.081 131.667 525.349 133.707 521.269 135.15C517.238 136.593 513.009 137.315 508.58 137.315C502.012 137.315 496.19 136.319 491.115 134.329C486.039 132.339 481.76 129.527 478.277 125.895C474.794 122.262 472.132 117.884 470.291 112.759C468.499 107.633 467.604 101.911 467.604 95.5917C467.604 89.3718 468.649 83.5749 470.738 78.201C472.878 72.7773 475.789 68.075 479.471 64.0943C483.153 60.1136 487.482 56.9788 492.458 54.6899C497.434 52.401 502.808 51.2565 508.58 51.2565C513.755 51.2565 518.631 52.2766 523.209 54.3167C527.787 56.3071 531.842 59.0936 535.375 62.6762C538.908 66.2091 541.819 70.3888 544.108 75.2154C546.397 80.0421 547.84 85.2667 548.437 90.8895L483.8 100.518C484.148 104.051 485.019 107.235 486.412 110.072C487.806 112.858 489.572 115.222 491.712 117.162C493.901 119.103 496.414 120.596 499.25 121.641C502.136 122.636 505.246 123.133 508.58 123.133ZM529.18 81.2611L528.732 79.843C526.842 74.9169 524.229 71.0606 520.895 68.2741C517.611 65.4876 513.506 64.0943 508.58 64.0943C506.49 64.0943 504.201 64.4675 501.713 65.2139C499.225 65.9105 496.812 67.1296 494.473 68.8712C492.135 70.6127 490.02 72.9514 488.129 75.8872C486.288 78.7732 484.994 82.3807 484.248 86.7097L529.18 81.2611ZM595.832 22.5208L595.31 55.8841L624.27 54.9138L623.15 68.8712L595.161 69.6176L594.563 134.702L578.815 135.075L580.084 70.0654L554.259 70.6625L554.557 56.929L580.382 56.1827L580.979 23.4911L595.832 22.5208ZM744.139 77.2307C744.139 82.5549 743.467 87.68 742.124 92.6062C740.78 97.4826 738.864 102.06 736.376 106.34C733.938 110.619 731.002 114.525 727.569 118.058C724.136 121.591 720.304 124.626 716.075 127.164C711.895 129.652 707.392 131.592 702.565 132.986C697.788 134.379 692.812 135.075 687.638 135.075C682.413 135.075 677.387 134.379 672.561 132.986C667.784 131.592 663.305 129.652 659.126 127.164C654.946 124.626 651.139 121.591 647.706 118.058C644.273 114.525 641.337 110.619 638.899 106.34C636.46 102.06 634.57 97.4826 633.226 92.6062C631.883 87.68 631.211 82.5549 631.211 77.2307C631.211 71.9065 631.883 66.7813 633.226 61.8552C634.57 56.929 636.46 52.3263 638.899 48.0471C641.337 43.7678 644.273 39.8866 647.706 36.4035C651.139 32.8706 654.946 29.8602 659.126 27.3722C663.305 24.8345 667.809 22.8939 672.635 21.5505C677.462 20.1572 682.463 19.4606 687.638 19.4606C692.812 19.4606 697.788 20.1572 702.565 21.5505C707.392 22.8939 711.895 24.8345 716.075 27.3722C720.304 29.8602 724.136 32.8706 727.569 36.4035C731.002 39.8866 733.938 43.7678 736.376 48.0471C738.864 52.3263 740.78 56.929 742.124 61.8552C743.467 66.7813 744.139 71.9065 744.139 77.2307ZM729.36 77.2307C729.36 73.2997 728.863 69.518 727.868 65.8856C726.872 62.2035 725.454 58.7701 723.613 55.5855C721.822 52.401 719.657 49.515 717.12 46.9275C714.582 44.2903 711.771 42.0511 708.686 40.21C705.6 38.3192 702.267 36.8762 698.684 35.881C695.151 34.8361 691.469 34.3136 687.638 34.3136C681.865 34.3136 676.467 35.4581 671.441 37.747C666.415 39.9861 662.012 43.0463 658.23 46.9275C654.448 50.8087 651.463 55.3616 649.273 60.5863C647.134 65.7612 646.064 71.3094 646.064 77.2307C646.064 83.152 647.134 88.725 649.273 93.9497C651.463 99.1744 654.448 103.727 658.23 107.608C662.012 111.49 666.415 114.575 671.441 116.864C676.467 119.103 681.865 120.222 687.638 120.222C691.469 120.222 695.151 119.725 698.684 118.73C702.267 117.685 705.6 116.242 708.686 114.401C711.771 112.51 714.582 110.271 717.12 107.683C719.657 105.046 721.822 102.135 723.613 98.9504C725.454 95.7659 726.872 92.3574 727.868 88.725C728.863 85.0428 729.36 81.2114 729.36 77.2307ZM843.408 112.385C842.91 115.868 841.915 118.978 840.422 121.715C838.979 124.402 837.163 126.741 834.974 128.731C832.784 130.722 830.321 132.388 827.584 133.732C824.897 135.125 822.061 136.245 819.076 137.091C816.14 137.937 813.154 138.534 810.119 138.882C807.084 139.28 804.173 139.479 801.386 139.479C797.555 139.479 793.773 139.056 790.041 138.21C786.309 137.414 782.627 136.27 778.995 134.777C775.412 133.334 771.854 131.592 768.322 129.552C764.838 127.512 761.38 125.273 757.947 122.835L768.844 109.997C772.725 113.43 776.557 116.142 780.338 118.132C784.17 120.073 787.603 121.541 790.638 122.536C794.171 123.73 797.555 124.527 800.789 124.925C804.372 125.124 807.706 124.85 810.791 124.104C813.876 123.357 816.563 122.287 818.852 120.894C821.19 119.451 823.056 117.759 824.45 115.819C825.843 113.828 826.664 111.738 826.913 109.549C827.062 107.708 826.739 106.041 825.942 104.548C825.146 103.006 823.977 101.613 822.434 100.369C820.892 99.0748 819.076 97.9553 816.986 97.0098C814.896 96.0147 812.657 95.1439 810.268 94.3975C807.93 93.6014 805.491 92.9296 802.954 92.3823C800.466 91.7852 798.053 91.2876 795.714 90.8895C792.878 90.3919 789.892 89.745 786.757 88.9489C783.622 88.103 780.537 87.0083 777.502 85.6648C774.467 84.3213 771.606 82.6544 768.919 80.664C766.232 78.6737 763.893 76.2853 761.903 73.4988C759.962 70.6625 758.469 67.3784 757.424 63.6465C756.429 59.9146 756.106 55.6353 756.454 50.8087C756.753 46.828 757.574 43.2453 758.917 40.0608C760.31 36.8264 762.077 33.9404 764.216 31.4027C766.406 28.865 768.894 26.7005 771.68 24.9092C774.517 23.0681 777.527 21.5505 780.712 20.3562C783.896 19.162 787.18 18.3161 790.564 17.8185C793.997 17.2712 797.406 17.0224 800.789 17.0722C805.467 17.3209 810.169 18.0424 814.896 19.2367C816.886 19.7343 818.976 20.3811 821.166 21.1773C823.405 21.9236 825.644 22.8442 827.883 23.9389C830.122 24.9838 832.336 26.2527 834.526 27.7454C836.715 29.1884 838.805 30.8554 840.795 32.7462L832.436 45.9572C830.844 44.1659 829.152 42.5985 827.361 41.255C825.569 39.9115 823.753 38.7422 821.912 37.747C820.121 36.7518 818.329 35.9059 816.538 35.2093C814.747 34.5126 813.055 33.9404 811.463 33.4926C807.631 32.4477 803.874 31.8505 800.192 31.7013C795.664 31.7013 791.634 32.3979 788.101 33.7911C784.568 35.1346 781.582 36.9011 779.144 39.0905C776.756 41.2301 774.915 43.6434 773.621 46.3304C772.377 48.9676 771.755 51.58 771.755 54.1674C771.755 56.7051 772.501 59.1682 773.994 61.5566C775.537 63.945 777.651 66.1096 780.338 68.0502C783.025 69.9908 786.185 71.6577 789.817 73.0509C793.45 74.3944 797.356 75.3398 801.536 75.8872C805.168 76.2853 808.776 76.9321 812.358 77.8278C815.991 78.7234 819.449 79.8679 822.733 81.2611C826.017 82.6544 829.027 84.3462 831.764 86.3366C834.551 88.2772 836.889 90.5412 838.78 93.1286C840.671 95.6664 842.039 98.5524 842.885 101.787C843.781 104.971 843.955 108.504 843.408 112.385Z" fill="black"/>
<path d="M87.8546 147.072H142.827C142.827 147.072 142.827 69.8249 142.827 49.6922C142.827 25.5615 123.265 6 99.1346 6C75.0039 6 55.5851 25.5615 55.5851 49.6922V114.802C55.5851 132.65 70.0064 147.072 87.8546 147.072Z" stroke="black" stroke-width="10.934" stroke-linecap="square"/>
<path d="M45.8925 103.022L0 76.5357L45.8925 50.0499V103.022Z" fill="black"/>
<path d="M132.945 136.855V110.37C132.945 95.7327 121.096 83.8838 106.459 83.8838C91.8224 83.8838 79.9736 95.7327 79.9736 110.37C79.9736 125.006 91.8224 136.855 106.459 136.855H132.945Z" fill="black"/>
<path d="M152.262 109.774V152.539H164.618C176.389 152.539 186 142.927 186 131.157C186 119.386 176.389 109.774 164.618 109.774H152.262Z" fill="black"/>
</svg>
