<svg width="182" height="38" viewBox="0 0 182 38" fill="none" xmlns="http://www.w3.org/2000/svg">
<path d="M49.5312 15.2756C49.4555 14.6032 49.143 14.0824 48.5938 13.7131C48.0445 13.339 47.3532 13.152 46.5199 13.152C45.9233 13.152 45.4072 13.2467 44.9716 13.4361C44.536 13.6207 44.1974 13.8764 43.956 14.2031C43.7192 14.5251 43.6009 14.892 43.6009 15.304C43.6009 15.6496 43.6813 15.9479 43.8423 16.1989C44.008 16.4498 44.2235 16.6605 44.4886 16.831C44.7585 16.9967 45.0473 17.1364 45.3551 17.25C45.6629 17.3589 45.9588 17.4489 46.2429 17.5199L47.6634 17.8892C48.1274 18.0028 48.6032 18.1567 49.0909 18.3509C49.5786 18.545 50.0308 18.8007 50.4474 19.1179C50.8641 19.4351 51.2003 19.8281 51.456 20.2969C51.7164 20.7656 51.8466 21.3267 51.8466 21.9801C51.8466 22.804 51.6335 23.5355 51.2074 24.1747C50.786 24.8139 50.1728 25.3182 49.3679 25.6875C48.5677 26.0568 47.5994 26.2415 46.4631 26.2415C45.3741 26.2415 44.4318 26.0687 43.6364 25.723C42.8409 25.3774 42.2183 24.8873 41.7685 24.2528C41.3187 23.6136 41.0701 22.8561 41.0227 21.9801H43.2244C43.267 22.5057 43.4375 22.9437 43.7358 23.294C44.0388 23.6397 44.4247 23.8977 44.8935 24.0682C45.367 24.2339 45.8854 24.3168 46.4489 24.3168C47.0691 24.3168 47.6207 24.2197 48.1037 24.0256C48.5914 23.8267 48.9749 23.5521 49.2543 23.2017C49.5336 22.8466 49.6733 22.4323 49.6733 21.9588C49.6733 21.5279 49.5502 21.1752 49.304 20.9006C49.0625 20.6259 48.7334 20.3987 48.3168 20.2188C47.9048 20.0388 47.4384 19.8802 46.9176 19.7429L45.1989 19.2741C44.0341 18.9569 43.1108 18.4905 42.429 17.875C41.7519 17.2595 41.4134 16.4451 41.4134 15.4318C41.4134 14.5937 41.6406 13.8622 42.0952 13.2372C42.5497 12.6122 43.1652 12.1269 43.9418 11.7812C44.7183 11.4309 45.5942 11.2557 46.5696 11.2557C47.5545 11.2557 48.4233 11.4285 49.1761 11.7741C49.9337 12.1198 50.5303 12.5956 50.9659 13.2017C51.4015 13.803 51.6288 14.4943 51.6477 15.2756H49.5312ZM54.0987 26V15.0909H56.2222V26H54.0987ZM55.1711 13.4077C54.8018 13.4077 54.4845 13.2846 54.2194 13.0384C53.959 12.7874 53.8288 12.4891 53.8288 12.1435C53.8288 11.7931 53.959 11.4948 54.2194 11.2486C54.4845 10.9976 54.8018 10.8722 55.1711 10.8722C55.5404 10.8722 55.8553 10.9976 56.1157 11.2486C56.3808 11.4948 56.5134 11.7931 56.5134 12.1435C56.5134 12.4891 56.3808 12.7874 56.1157 13.0384C55.8553 13.2846 55.5404 13.4077 55.1711 13.4077ZM61.0027 19.5227V26H58.8791V15.0909H60.9175V16.8665H61.0524C61.3034 16.2888 61.6964 15.8248 62.2314 15.4744C62.7712 15.1241 63.4506 14.9489 64.2697 14.9489C65.0131 14.9489 65.6642 15.1051 66.2229 15.4176C66.7816 15.7254 67.2148 16.1847 67.5226 16.7955C67.8304 17.4062 67.9842 18.1615 67.9842 19.0611V26H65.8607V19.3168C65.8607 18.526 65.6547 17.9081 65.2428 17.4631C64.8308 17.0133 64.265 16.7884 63.5453 16.7884C63.0529 16.7884 62.6149 16.8949 62.2314 17.108C61.8526 17.321 61.5519 17.6335 61.3294 18.0455C61.1116 18.4527 61.0027 18.9451 61.0027 19.5227ZM75.2061 30.3182C74.3396 30.3182 73.5939 30.2045 72.9689 29.9773C72.3486 29.75 71.842 29.4493 71.449 29.0753C71.056 28.7012 70.7625 28.2917 70.5683 27.8466L72.3936 27.0938C72.5214 27.3021 72.6919 27.5223 72.905 27.7543C73.1228 27.991 73.4163 28.1922 73.7857 28.358C74.1597 28.5237 74.6403 28.6065 75.2274 28.6065C76.0323 28.6065 76.6976 28.41 77.2232 28.017C77.7487 27.6288 78.0115 27.0085 78.0115 26.1562V24.0114H77.8766C77.7487 24.2434 77.5641 24.5014 77.3226 24.7855C77.0858 25.0696 76.7591 25.3158 76.3425 25.5241C75.9258 25.7325 75.3837 25.8366 74.7161 25.8366C73.8543 25.8366 73.0778 25.6354 72.3865 25.233C71.7 24.8258 71.1554 24.2268 70.753 23.4361C70.3553 22.6406 70.1564 21.6629 70.1564 20.5028C70.1564 19.3428 70.3529 18.3485 70.7459 17.5199C71.1436 16.6913 71.6881 16.0568 72.3794 15.6165C73.0707 15.1714 73.8543 14.9489 74.7303 14.9489C75.4073 14.9489 75.9542 15.0625 76.3709 15.2898C76.7875 15.5123 77.1119 15.7727 77.3439 16.071C77.5806 16.3693 77.7629 16.6321 77.8908 16.8594H78.047V15.0909H80.128V26.2415C80.128 27.179 79.9102 27.9484 79.4746 28.5497C79.039 29.151 78.4495 29.5961 77.7061 29.8849C76.9675 30.1738 76.1341 30.3182 75.2061 30.3182ZM75.1848 24.0753C75.7956 24.0753 76.3117 23.9332 76.7331 23.6491C77.1592 23.3603 77.4812 22.9484 77.699 22.4134C77.9215 21.8736 78.0328 21.2273 78.0328 20.4744C78.0328 19.7405 77.9239 19.0942 77.7061 18.5355C77.4883 17.9768 77.1687 17.5412 76.7473 17.2287C76.3259 16.9115 75.8051 16.7528 75.1848 16.7528C74.5456 16.7528 74.0129 16.9186 73.5868 17.25C73.1607 17.5767 72.8387 18.0218 72.6209 18.5852C72.4078 19.1487 72.3013 19.7784 72.3013 20.4744C72.3013 21.1894 72.4102 21.8168 72.628 22.3565C72.8458 22.8963 73.1678 23.3177 73.5939 23.6207C74.0248 23.9238 74.5551 24.0753 75.1848 24.0753ZM84.8996 11.4545V26H82.776V11.4545H84.8996ZM92.2582 26.2202C91.1834 26.2202 90.2577 25.9905 89.4812 25.5312C88.7094 25.0672 88.1128 24.4162 87.6914 23.5781C87.2747 22.7353 87.0664 21.7481 87.0664 20.6165C87.0664 19.4991 87.2747 18.5142 87.6914 17.6619C88.1128 16.8097 88.6999 16.1444 89.4528 15.6662C90.2103 15.188 91.0958 14.9489 92.109 14.9489C92.7246 14.9489 93.3211 15.0507 93.8988 15.2543C94.4764 15.4579 94.9949 15.7775 95.4542 16.2131C95.9135 16.6487 96.2757 17.2145 96.5408 17.9105C96.806 18.6018 96.9386 19.4422 96.9386 20.4318V21.1847H88.2667V19.5938H94.8576C94.8576 19.035 94.744 18.5402 94.5167 18.1094C94.2894 17.6738 93.9698 17.3305 93.5579 17.0795C93.1507 16.8286 92.6725 16.7031 92.1232 16.7031C91.5266 16.7031 91.0058 16.8499 90.5607 17.1435C90.1204 17.4323 89.7795 17.8111 89.538 18.2798C89.3013 18.7438 89.1829 19.2481 89.1829 19.7926V21.0355C89.1829 21.7647 89.3107 22.3849 89.5664 22.8963C89.8268 23.4077 90.189 23.7983 90.6531 24.0682C91.1171 24.3333 91.6592 24.4659 92.2795 24.4659C92.6819 24.4659 93.0489 24.4091 93.3803 24.2955C93.7118 24.1771 93.9982 24.0019 94.2397 23.7699C94.4812 23.5379 94.6658 23.2514 94.7937 22.9105L96.8036 23.2727C96.6426 23.8646 96.3538 24.383 95.9371 24.8281C95.5252 25.2685 95.0067 25.6117 94.3817 25.858C93.7615 26.0994 93.0536 26.2202 92.2582 26.2202ZM112.291 15.2756C112.216 14.6032 111.903 14.0824 111.354 13.7131C110.805 13.339 110.113 13.152 109.28 13.152C108.683 13.152 108.167 13.2467 107.732 13.4361C107.296 13.6207 106.958 13.8764 106.716 14.2031C106.479 14.5251 106.361 14.892 106.361 15.304C106.361 15.6496 106.441 15.9479 106.602 16.1989C106.768 16.4498 106.984 16.6605 107.249 16.831C107.519 16.9967 107.808 17.1364 108.115 17.25C108.423 17.3589 108.719 17.4489 109.003 17.5199L110.424 17.8892C110.888 18.0028 111.363 18.1567 111.851 18.3509C112.339 18.545 112.791 18.8007 113.208 19.1179C113.624 19.4351 113.96 19.8281 114.216 20.2969C114.477 20.7656 114.607 21.3267 114.607 21.9801C114.607 22.804 114.394 23.5355 113.968 24.1747C113.546 24.8139 112.933 25.3182 112.128 25.6875C111.328 26.0568 110.36 26.2415 109.223 26.2415C108.134 26.2415 107.192 26.0687 106.397 25.723C105.601 25.3774 104.978 24.8873 104.529 24.2528C104.079 23.6136 103.83 22.8561 103.783 21.9801H105.985C106.027 22.5057 106.198 22.9437 106.496 23.294C106.799 23.6397 107.185 23.8977 107.654 24.0682C108.127 24.2339 108.646 24.3168 109.209 24.3168C109.829 24.3168 110.381 24.2197 110.864 24.0256C111.352 23.8267 111.735 23.5521 112.014 23.2017C112.294 22.8466 112.433 22.4323 112.433 21.9588C112.433 21.5279 112.31 21.1752 112.064 20.9006C111.823 20.6259 111.494 20.3987 111.077 20.2188C110.665 20.0388 110.199 19.8802 109.678 19.7429L107.959 19.2741C106.794 18.9569 105.871 18.4905 105.189 17.875C104.512 17.2595 104.174 16.4451 104.174 15.4318C104.174 14.5937 104.401 13.8622 104.855 13.2372C105.31 12.6122 105.925 12.1269 106.702 11.7812C107.478 11.4309 108.354 11.2557 109.33 11.2557C110.315 11.2557 111.183 11.4285 111.936 11.7741C112.694 12.1198 113.29 12.5956 113.726 13.2017C114.162 13.803 114.389 14.4943 114.408 15.2756H112.291ZM116.859 26V15.0909H118.982V26H116.859ZM117.931 13.4077C117.562 13.4077 117.245 13.2846 116.98 13.0384C116.719 12.7874 116.589 12.4891 116.589 12.1435C116.589 11.7931 116.719 11.4948 116.98 11.2486C117.245 10.9976 117.562 10.8722 117.931 10.8722C118.301 10.8722 118.615 10.9976 118.876 11.2486C119.141 11.4948 119.274 11.7931 119.274 12.1435C119.274 12.4891 119.141 12.7874 118.876 13.0384C118.615 13.2846 118.301 13.4077 117.931 13.4077ZM126.213 30.3182C125.347 30.3182 124.601 30.2045 123.976 29.9773C123.356 29.75 122.849 29.4493 122.456 29.0753C122.063 28.7012 121.769 28.2917 121.575 27.8466L123.401 27.0938C123.528 27.3021 123.699 27.5223 123.912 27.7543C124.13 27.991 124.423 28.1922 124.793 28.358C125.167 28.5237 125.647 28.6065 126.234 28.6065C127.039 28.6065 127.705 28.41 128.23 28.017C128.756 27.6288 129.019 27.0085 129.019 26.1562V24.0114H128.884C128.756 24.2434 128.571 24.5014 128.33 24.7855C128.093 25.0696 127.766 25.3158 127.35 25.5241C126.933 25.7325 126.391 25.8366 125.723 25.8366C124.861 25.8366 124.085 25.6354 123.394 25.233C122.707 24.8258 122.162 24.2268 121.76 23.4361C121.362 22.6406 121.163 21.6629 121.163 20.5028C121.163 19.3428 121.36 18.3485 121.753 17.5199C122.151 16.6913 122.695 16.0568 123.386 15.6165C124.078 15.1714 124.861 14.9489 125.737 14.9489C126.414 14.9489 126.961 15.0625 127.378 15.2898C127.795 15.5123 128.119 15.7727 128.351 16.071C128.588 16.3693 128.77 16.6321 128.898 16.8594H129.054V15.0909H131.135V26.2415C131.135 27.179 130.917 27.9484 130.482 28.5497C130.046 29.151 129.457 29.5961 128.713 29.8849C127.975 30.1738 127.141 30.3182 126.213 30.3182ZM126.192 24.0753C126.803 24.0753 127.319 23.9332 127.74 23.6491C128.166 23.3603 128.488 22.9484 128.706 22.4134C128.929 21.8736 129.04 21.2273 129.04 20.4744C129.04 19.7405 128.931 19.0942 128.713 18.5355C128.495 17.9768 128.176 17.5412 127.754 17.2287C127.333 16.9115 126.812 16.7528 126.192 16.7528C125.553 16.7528 125.02 16.9186 124.594 17.25C124.168 17.5767 123.846 18.0218 123.628 18.5852C123.415 19.1487 123.308 19.7784 123.308 20.4744C123.308 21.1894 123.417 21.8168 123.635 22.3565C123.853 22.8963 124.175 23.3177 124.601 23.6207C125.032 23.9238 125.562 24.0753 126.192 24.0753ZM135.907 19.5227V26H133.783V15.0909H135.821V16.8665H135.956C136.207 16.2888 136.6 15.8248 137.135 15.4744C137.675 15.1241 138.355 14.9489 139.174 14.9489C139.917 14.9489 140.568 15.1051 141.127 15.4176C141.685 15.7254 142.119 16.1847 142.426 16.7955C142.734 17.4062 142.888 18.1615 142.888 19.0611V26H140.765V19.3168C140.765 18.526 140.559 17.9081 140.147 17.4631C139.735 17.0133 139.169 16.7884 138.449 16.7884C137.957 16.7884 137.519 16.8949 137.135 17.108C136.757 17.321 136.456 17.6335 136.233 18.0455C136.016 18.4527 135.907 18.9451 135.907 19.5227ZM163.435 18.7273C163.435 20.2803 163.15 21.6155 162.582 22.733C162.014 23.8456 161.235 24.7027 160.246 25.304C159.261 25.9006 158.141 26.1989 156.886 26.1989C155.627 26.1989 154.502 25.9006 153.513 25.304C152.528 24.7027 151.751 23.8433 151.183 22.7259C150.615 21.6084 150.331 20.2756 150.331 18.7273C150.331 17.1742 150.615 15.8414 151.183 14.7287C151.751 13.6113 152.528 12.7543 153.513 12.1577C154.502 11.5563 155.627 11.2557 156.886 11.2557C158.141 11.2557 159.261 11.5563 160.246 12.1577C161.235 12.7543 162.014 13.6113 162.582 14.7287C163.15 15.8414 163.435 17.1742 163.435 18.7273ZM161.261 18.7273C161.261 17.5436 161.069 16.5469 160.686 15.7372C160.307 14.9228 159.786 14.3073 159.123 13.8906C158.465 13.4692 157.72 13.2585 156.886 13.2585C156.048 13.2585 155.3 13.4692 154.642 13.8906C153.984 14.3073 153.463 14.9228 153.079 15.7372C152.701 16.5469 152.511 17.5436 152.511 18.7273C152.511 19.911 152.701 20.91 153.079 21.7244C153.463 22.5341 153.984 23.1496 154.642 23.571C155.3 23.9877 156.048 24.196 156.886 24.196C157.72 24.196 158.465 23.9877 159.123 23.571C159.786 23.1496 160.307 22.5341 160.686 21.7244C161.069 20.91 161.261 19.911 161.261 18.7273ZM167.924 19.5227V26H165.8V15.0909H167.839V16.8665H167.974C168.224 16.2888 168.617 15.8248 169.152 15.4744C169.692 15.1241 170.372 14.9489 171.191 14.9489C171.934 14.9489 172.585 15.1051 173.144 15.4176C173.703 15.7254 174.136 16.1847 174.444 16.7955C174.751 17.4062 174.905 18.1615 174.905 19.0611V26H172.782V19.3168C172.782 18.526 172.576 17.9081 172.164 17.4631C171.752 17.0133 171.186 16.7884 170.466 16.7884C169.974 16.7884 169.536 16.8949 169.152 17.108C168.774 17.321 168.473 17.6335 168.25 18.0455C168.033 18.4527 167.924 18.9451 167.924 19.5227Z" fill="#9FA6B2"/>
<path d="M30.1262 9.22923C30.3154 13.3138 29.3831 17.4954 27.1908 21.2938C25.8985 23.5277 24.2738 25.4523 22.4138 27.04C22.1323 26.8831 21.8554 26.7169 21.5831 26.5415C23.4615 24.9815 25.1 23.0662 26.3923 20.8277C28.5754 17.0431 29.4615 12.8708 29.1938 8.81385C28.5569 8.55077 27.9154 8.31538 27.2692 8.10769V8.11231C24.98 7.39231 22.5431 7 20.0138 7C15.6338 7 11.5354 8.17692 8 10.2262C8 10.9369 8.03692 11.6385 8.09692 12.3354C11.5446 10.1292 15.6292 8.84615 20.0138 8.84615C22.5938 8.84615 25.0723 9.29385 27.38 10.1108C27.3846 10.4338 27.38 10.7569 27.3662 11.08C25.0723 10.2308 22.5985 9.76923 20.0138 9.76923C15.6477 9.76923 11.5862 11.0892 8.21231 13.3508C8.3 14.0338 8.42 14.7077 8.56308 15.3723C8.56308 15.3723 8.56769 15.3723 8.56769 15.3677C9.08462 17.7123 9.96154 20.02 11.2262 22.2077C13.4138 25.9969 16.4877 28.96 20.0277 31C20.6415 30.6446 21.2323 30.2615 21.8046 29.86C18.1723 27.9815 15.0154 25.0831 12.8231 21.2846C11.5308 19.0462 10.6815 16.6785 10.2338 14.2738C10.5108 14.1123 10.7923 13.9508 11.0785 13.8031C11.4938 16.2077 12.3292 18.5846 13.6215 20.8231C15.8046 24.6077 18.98 27.46 22.6215 29.2554C23.1708 28.8354 23.6923 28.3969 24.1954 27.94H24.1908C25.9631 26.32 27.5231 24.4092 28.7877 22.2169C30.9754 18.4231 32.0046 14.2831 32 10.1985C31.3862 9.84308 30.7585 9.52462 30.1262 9.22923ZM15.2185 19.9C13.9538 17.7077 13.1738 15.3677 12.8277 13C15.0523 12.1092 17.4754 11.6154 20.0092 11.6154C22.5431 11.6154 24.9615 12.1092 27.1815 12.9954C26.84 15.3677 26.06 17.7123 24.7908 19.9092C23.5262 22.1015 21.8877 23.9523 20.0092 25.4292C18.1308 23.9477 16.4877 22.0969 15.2185 19.9Z" fill="#9FA6B2"/>
</svg>
